<svg width="814" height="400" viewBox="0 0 814 400" fill="none" xmlns="http://www.w3.org/2000/svg">
<rect width="814" height="400" fill="#D9D9D9"/>
<rect x="19.8326" y="51.7413" width="368.197" height="47.7612" fill="#EEEEEE"/>
<rect x="388.03" y="52.7363" width="58.6356" height="47.7612" fill="#6D1616"/>
<path d="M425.108 87.5622L419.934 81.592M409.587 76.6169C409.587 77.5316 409.743 78.4373 410.046 79.2824C410.35 80.1274 410.794 80.8953 411.355 81.542C411.915 82.1888 412.581 82.7019 413.313 83.0519C414.045 83.4019 414.83 83.5821 415.623 83.5821C416.416 83.5821 417.2 83.4019 417.933 83.0519C418.665 82.7019 419.331 82.1888 419.891 81.542C420.452 80.8953 420.896 80.1274 421.199 79.2824C421.503 78.4373 421.659 77.5316 421.659 76.6169C421.659 75.7022 421.503 74.7965 421.199 73.9515C420.896 73.1064 420.452 72.3386 419.891 71.6918C419.331 71.045 418.665 70.532 417.933 70.1819C417.2 69.8319 416.416 69.6517 415.623 69.6517C414.83 69.6517 414.045 69.8319 413.313 70.1819C412.581 70.532 411.915 71.045 411.355 71.6918C410.794 72.3386 410.35 73.1064 410.046 73.9515C409.743 74.7965 409.587 75.7022 409.587 76.6169Z" stroke="white" stroke-width="2" stroke-linecap="round" stroke-linejoin="round"/>
<path d="M55.7955 64.5455H57.9091V77.0227C57.9091 78.1364 57.7045 79.0824 57.2955 79.8608C56.8864 80.6392 56.3097 81.2301 55.5653 81.6335C54.821 82.0369 53.9432 82.2386 52.9318 82.2386C51.9773 82.2386 51.1278 82.0653 50.3835 81.7188C49.6392 81.3665 49.054 80.8665 48.6278 80.2188C48.2017 79.571 47.9886 78.8011 47.9886 77.9091H50.0682C50.0682 78.4034 50.1903 78.8352 50.4347 79.2045C50.6847 79.5682 51.0256 79.8523 51.4574 80.0568C51.8892 80.2614 52.3807 80.3636 52.9318 80.3636C53.5398 80.3636 54.0568 80.2358 54.483 79.9801C54.9091 79.7244 55.233 79.3494 55.4545 78.8551C55.6818 78.3551 55.7955 77.7443 55.7955 77.0227V64.5455ZM62.1449 82V64.5455H68.0426C69.4119 64.5455 70.5313 64.7926 71.4006 65.2869C72.2756 65.7756 72.9233 66.4375 73.3438 67.2727C73.7642 68.108 73.9744 69.0398 73.9744 70.0682C73.9744 71.0966 73.7642 72.0312 73.3438 72.8722C72.929 73.7131 72.2869 74.3835 71.4176 74.8835C70.5483 75.3778 69.4347 75.625 68.0767 75.625H63.8494V73.75H68.0085C68.946 73.75 69.6989 73.5881 70.267 73.2642C70.8352 72.9403 71.2472 72.5028 71.5028 71.9517C71.7642 71.3949 71.8949 70.767 71.8949 70.0682C71.8949 69.3693 71.7642 68.7443 71.5028 68.1932C71.2472 67.642 70.8324 67.2102 70.2585 66.8977C69.6847 66.5795 68.9233 66.4205 67.9744 66.4205H64.2585V82H62.1449ZM84.1293 82V64.5455H94.6634V66.4205H86.2429V72.3182H94.1179V74.1932H86.2429V80.125H94.7997V82H84.1293ZM107.473 71.8409L105.666 72.3523C105.553 72.0511 105.385 71.7585 105.163 71.4744C104.947 71.1847 104.652 70.946 104.277 70.7585C103.902 70.571 103.422 70.4773 102.837 70.4773C102.036 70.4773 101.368 70.6619 100.834 71.0312C100.305 71.3949 100.041 71.858 100.041 72.4205C100.041 72.9205 100.223 73.3153 100.587 73.6051C100.95 73.8949 101.518 74.1364 102.291 74.3295L104.234 74.8068C105.405 75.0909 106.277 75.5256 106.851 76.1108C107.425 76.6903 107.712 77.4375 107.712 78.3523C107.712 79.1023 107.496 79.7727 107.064 80.3636C106.638 80.9545 106.041 81.4205 105.274 81.7614C104.507 82.1023 103.615 82.2727 102.598 82.2727C101.263 82.2727 100.158 81.983 99.2827 81.4034C98.4077 80.8239 97.8537 79.9773 97.6207 78.8636L99.5298 78.3864C99.7116 79.0909 100.055 79.6193 100.561 79.9716C101.072 80.3239 101.74 80.5 102.564 80.5C103.501 80.5 104.246 80.3011 104.797 79.9034C105.354 79.5 105.632 79.017 105.632 78.4545C105.632 78 105.473 77.6193 105.155 77.3125C104.837 77 104.348 76.767 103.689 76.6136L101.507 76.1023C100.308 75.8182 99.4276 75.3778 98.8651 74.7812C98.3082 74.179 98.0298 73.4261 98.0298 72.5227C98.0298 71.7841 98.2372 71.1307 98.652 70.5625C99.0724 69.9943 99.6435 69.5483 100.365 69.2244C101.092 68.9006 101.916 68.7386 102.837 68.7386C104.132 68.7386 105.149 69.0227 105.888 69.5909C106.632 70.1591 107.161 70.9091 107.473 71.8409ZM116.433 68.9091V70.6136H109.648V68.9091H116.433ZM111.626 65.7727H113.637V78.25C113.637 78.8182 113.719 79.2443 113.884 79.5284C114.055 79.8068 114.271 79.9943 114.532 80.0909C114.799 80.1818 115.08 80.2273 115.376 80.2273C115.597 80.2273 115.779 80.2159 115.921 80.1932C116.063 80.1648 116.177 80.142 116.262 80.125L116.671 81.9318C116.535 81.983 116.344 82.0341 116.1 82.0852C115.856 82.142 115.546 82.1705 115.171 82.1705C114.603 82.1705 114.046 82.0483 113.501 81.804C112.961 81.5597 112.512 81.1875 112.154 80.6875C111.802 80.1875 111.626 79.5568 111.626 78.7955V65.7727ZM123.31 82.3068C122.481 82.3068 121.728 82.1506 121.052 81.8381C120.376 81.5199 119.839 81.0625 119.441 80.4659C119.043 79.8636 118.844 79.1364 118.844 78.2841C118.844 77.5341 118.992 76.9261 119.288 76.4602C119.583 75.9886 119.978 75.6193 120.472 75.3523C120.967 75.0852 121.512 74.8864 122.109 74.7557C122.711 74.6193 123.316 74.5114 123.924 74.4318C124.719 74.3295 125.364 74.2528 125.859 74.2017C126.359 74.1449 126.722 74.0511 126.95 73.9205C127.183 73.7898 127.299 73.5625 127.299 73.2386V73.1705C127.299 72.3295 127.069 71.6761 126.609 71.2102C126.154 70.7443 125.464 70.5114 124.538 70.5114C123.577 70.5114 122.825 70.7216 122.279 71.142C121.734 71.5625 121.35 72.0114 121.129 72.4886L119.219 71.8068C119.56 71.0114 120.015 70.392 120.583 69.9489C121.157 69.5 121.782 69.1875 122.458 69.0114C123.14 68.8295 123.81 68.7386 124.469 68.7386C124.89 68.7386 125.373 68.7898 125.918 68.892C126.469 68.9886 127.001 69.1903 127.512 69.4972C128.029 69.804 128.458 70.267 128.799 70.8864C129.14 71.5057 129.31 72.3352 129.31 73.375V82H127.299V80.2273H127.197C127.06 80.5114 126.833 80.8153 126.515 81.1392C126.197 81.4631 125.773 81.7386 125.245 81.9659C124.717 82.1932 124.072 82.3068 123.31 82.3068ZM123.617 80.5C124.413 80.5 125.083 80.3438 125.629 80.0312C126.18 79.7188 126.594 79.3153 126.873 78.821C127.157 78.3267 127.299 77.8068 127.299 77.2614V75.4205C127.214 75.5227 127.026 75.6165 126.737 75.7017C126.452 75.7812 126.123 75.8523 125.748 75.9148C125.379 75.9716 125.018 76.0227 124.665 76.0682C124.319 76.108 124.038 76.142 123.822 76.1705C123.299 76.2386 122.81 76.3494 122.356 76.5028C121.907 76.6506 121.543 76.875 121.265 77.1761C120.992 77.4716 120.856 77.875 120.856 78.3864C120.856 79.0852 121.114 79.6136 121.631 79.9716C122.154 80.3239 122.816 80.5 123.617 80.5ZM138.675 68.9091V70.6136H131.891V68.9091H138.675ZM133.868 65.7727H135.879V78.25C135.879 78.8182 135.962 79.2443 136.126 79.5284C136.297 79.8068 136.513 79.9943 136.774 80.0909C137.041 80.1818 137.322 80.2273 137.618 80.2273C137.839 80.2273 138.021 80.2159 138.163 80.1932C138.305 80.1648 138.419 80.142 138.504 80.125L138.913 81.9318C138.777 81.983 138.587 82.0341 138.342 82.0852C138.098 82.142 137.788 82.1705 137.413 82.1705C136.845 82.1705 136.288 82.0483 135.743 81.804C135.203 81.5597 134.754 81.1875 134.396 80.6875C134.044 80.1875 133.868 79.5568 133.868 78.7955V65.7727ZM147.048 82.2727C145.787 82.2727 144.699 81.9943 143.784 81.4375C142.875 80.875 142.173 80.0909 141.679 79.0852C141.19 78.0739 140.946 76.8977 140.946 75.5568C140.946 74.2159 141.19 73.0341 141.679 72.0114C142.173 70.983 142.861 70.1818 143.741 69.608C144.628 69.0284 145.662 68.7386 146.844 68.7386C147.526 68.7386 148.199 68.8523 148.864 69.0795C149.528 69.3068 150.134 69.6761 150.679 70.1875C151.224 70.6932 151.659 71.3636 151.983 72.1989C152.307 73.0341 152.469 74.0625 152.469 75.2841V76.1364H142.378V74.3977H150.423C150.423 73.6591 150.276 73 149.98 72.4205C149.69 71.8409 149.276 71.3835 148.736 71.0483C148.202 70.7131 147.571 70.5455 146.844 70.5455C146.043 70.5455 145.349 70.7443 144.764 71.142C144.185 71.5341 143.739 72.0455 143.426 72.6761C143.114 73.3068 142.957 73.983 142.957 74.7045V75.8636C142.957 76.8523 143.128 77.6903 143.469 78.3778C143.815 79.0597 144.295 79.5795 144.909 79.9375C145.523 80.2898 146.236 80.4659 147.048 80.4659C147.577 80.4659 148.054 80.392 148.48 80.2443C148.912 80.0909 149.284 79.8636 149.597 79.5625C149.909 79.2557 150.151 78.875 150.321 78.4205L152.264 78.9659C152.06 79.625 151.716 80.2045 151.233 80.7045C150.75 81.1989 150.153 81.5852 149.443 81.8636C148.733 82.1364 147.935 82.2727 147.048 82.2727Z" fill="black"/>
<rect x="161.248" y="140.298" width="387.167" height="157.214" fill="#EEEEEE"/>
<path d="M194.187 162.759H196.301V175.237C196.301 176.35 196.097 177.296 195.687 178.075C195.278 178.853 194.702 179.444 193.957 179.848C193.213 180.251 192.335 180.453 191.324 180.453C190.369 180.453 189.52 180.279 188.775 179.933C188.031 179.58 187.446 179.08 187.02 178.433C186.594 177.785 186.381 177.015 186.381 176.123H188.46C188.46 176.617 188.582 177.049 188.827 177.419C189.077 177.782 189.418 178.066 189.849 178.271C190.281 178.475 190.773 178.578 191.324 178.578C191.932 178.578 192.449 178.45 192.875 178.194C193.301 177.938 193.625 177.563 193.847 177.069C194.074 176.569 194.187 175.958 194.187 175.237V162.759ZM200.537 180.214V162.759H206.435C207.804 162.759 208.923 163.007 209.793 163.501C210.668 163.99 211.315 164.651 211.736 165.487C212.156 166.322 212.366 167.254 212.366 168.282C212.366 169.311 212.156 170.245 211.736 171.086C211.321 171.927 210.679 172.598 209.81 173.098C208.94 173.592 207.827 173.839 206.469 173.839H202.241V171.964H206.4C207.338 171.964 208.091 171.802 208.659 171.478C209.227 171.154 209.639 170.717 209.895 170.166C210.156 169.609 210.287 168.981 210.287 168.282C210.287 167.583 210.156 166.958 209.895 166.407C209.639 165.856 209.224 165.424 208.65 165.112C208.077 164.794 207.315 164.634 206.366 164.634H202.65V180.214H200.537ZM222.521 180.214V162.759H233.055V164.634H224.635V170.532H232.51V172.407H224.635V178.339H233.192V180.214H222.521ZM245.865 170.055L244.058 170.566C243.945 170.265 243.777 169.973 243.555 169.688C243.339 169.399 243.044 169.16 242.669 168.973C242.294 168.785 241.814 168.691 241.229 168.691C240.427 168.691 239.76 168.876 239.226 169.245C238.697 169.609 238.433 170.072 238.433 170.634C238.433 171.134 238.615 171.529 238.979 171.819C239.342 172.109 239.91 172.35 240.683 172.544L242.626 173.021C243.797 173.305 244.669 173.74 245.243 174.325C245.817 174.904 246.104 175.651 246.104 176.566C246.104 177.316 245.888 177.987 245.456 178.578C245.03 179.169 244.433 179.634 243.666 179.975C242.899 180.316 242.007 180.487 240.99 180.487C239.655 180.487 238.55 180.197 237.675 179.617C236.8 179.038 236.246 178.191 236.013 177.078L237.922 176.6C238.104 177.305 238.447 177.833 238.953 178.186C239.464 178.538 240.132 178.714 240.956 178.714C241.893 178.714 242.638 178.515 243.189 178.117C243.746 177.714 244.024 177.231 244.024 176.669C244.024 176.214 243.865 175.833 243.547 175.526C243.229 175.214 242.74 174.981 242.081 174.828L239.899 174.316C238.7 174.032 237.82 173.592 237.257 172.995C236.7 172.393 236.422 171.64 236.422 170.737C236.422 169.998 236.629 169.345 237.044 168.776C237.464 168.208 238.035 167.762 238.757 167.438C239.484 167.115 240.308 166.953 241.229 166.953C242.524 166.953 243.541 167.237 244.28 167.805C245.024 168.373 245.552 169.123 245.865 170.055ZM254.824 167.123V168.828H248.04V167.123H254.824ZM250.018 163.987H252.029V176.464C252.029 177.032 252.111 177.458 252.276 177.742C252.447 178.021 252.663 178.208 252.924 178.305C253.191 178.396 253.472 178.441 253.768 178.441C253.989 178.441 254.171 178.43 254.313 178.407C254.455 178.379 254.569 178.356 254.654 178.339L255.063 180.146C254.927 180.197 254.736 180.248 254.492 180.299C254.248 180.356 253.938 180.384 253.563 180.384C252.995 180.384 252.438 180.262 251.893 180.018C251.353 179.774 250.904 179.401 250.546 178.901C250.194 178.401 250.018 177.771 250.018 177.009V163.987ZM261.702 180.521C260.873 180.521 260.12 180.365 259.444 180.052C258.768 179.734 258.231 179.276 257.833 178.68C257.435 178.078 257.236 177.35 257.236 176.498C257.236 175.748 257.384 175.14 257.68 174.674C257.975 174.203 258.37 173.833 258.864 173.566C259.359 173.299 259.904 173.1 260.501 172.97C261.103 172.833 261.708 172.725 262.316 172.646C263.111 172.544 263.756 172.467 264.251 172.416C264.751 172.359 265.114 172.265 265.342 172.134C265.574 172.004 265.691 171.776 265.691 171.453V171.384C265.691 170.544 265.461 169.89 265.001 169.424C264.546 168.958 263.856 168.725 262.93 168.725C261.969 168.725 261.217 168.936 260.671 169.356C260.126 169.776 259.742 170.225 259.521 170.703L257.611 170.021C257.952 169.225 258.407 168.606 258.975 168.163C259.549 167.714 260.174 167.401 260.85 167.225C261.532 167.044 262.202 166.953 262.861 166.953C263.282 166.953 263.765 167.004 264.31 167.106C264.861 167.203 265.393 167.404 265.904 167.711C266.421 168.018 266.85 168.481 267.191 169.1C267.532 169.72 267.702 170.549 267.702 171.589V180.214H265.691V178.441H265.589C265.452 178.725 265.225 179.029 264.907 179.353C264.589 179.677 264.165 179.953 263.637 180.18C263.109 180.407 262.464 180.521 261.702 180.521ZM262.009 178.714C262.805 178.714 263.475 178.558 264.021 178.245C264.572 177.933 264.986 177.529 265.265 177.035C265.549 176.541 265.691 176.021 265.691 175.475V173.634C265.606 173.737 265.418 173.83 265.128 173.916C264.844 173.995 264.515 174.066 264.14 174.129C263.771 174.186 263.41 174.237 263.057 174.282C262.711 174.322 262.43 174.356 262.214 174.384C261.691 174.453 261.202 174.563 260.748 174.717C260.299 174.865 259.935 175.089 259.657 175.39C259.384 175.686 259.248 176.089 259.248 176.6C259.248 177.299 259.506 177.828 260.023 178.186C260.546 178.538 261.208 178.714 262.009 178.714ZM277.067 167.123V168.828H270.283V167.123H277.067ZM272.26 163.987H274.271V176.464C274.271 177.032 274.354 177.458 274.518 177.742C274.689 178.021 274.905 178.208 275.166 178.305C275.433 178.396 275.714 178.441 276.01 178.441C276.231 178.441 276.413 178.43 276.555 178.407C276.697 178.379 276.811 178.356 276.896 178.339L277.305 180.146C277.169 180.197 276.979 180.248 276.734 180.299C276.49 180.356 276.18 180.384 275.805 180.384C275.237 180.384 274.68 180.262 274.135 180.018C273.595 179.774 273.146 179.401 272.788 178.901C272.436 178.401 272.26 177.771 272.26 177.009V163.987ZM285.44 180.487C284.179 180.487 283.091 180.208 282.176 179.651C281.267 179.089 280.565 178.305 280.071 177.299C279.582 176.288 279.338 175.112 279.338 173.771C279.338 172.43 279.582 171.248 280.071 170.225C280.565 169.197 281.253 168.396 282.133 167.822C283.02 167.242 284.054 166.953 285.236 166.953C285.918 166.953 286.591 167.066 287.256 167.294C287.92 167.521 288.525 167.89 289.071 168.401C289.616 168.907 290.051 169.578 290.375 170.413C290.699 171.248 290.861 172.276 290.861 173.498V174.35H280.77V172.612H288.815C288.815 171.873 288.668 171.214 288.372 170.634C288.082 170.055 287.668 169.598 287.128 169.262C286.594 168.927 285.963 168.759 285.236 168.759C284.435 168.759 283.741 168.958 283.156 169.356C282.577 169.748 282.131 170.259 281.818 170.89C281.506 171.521 281.349 172.197 281.349 172.919V174.078C281.349 175.066 281.52 175.904 281.861 176.592C282.207 177.274 282.687 177.794 283.301 178.151C283.915 178.504 284.628 178.68 285.44 178.68C285.969 178.68 286.446 178.606 286.872 178.458C287.304 178.305 287.676 178.078 287.989 177.776C288.301 177.47 288.543 177.089 288.713 176.634L290.656 177.18C290.452 177.839 290.108 178.419 289.625 178.919C289.142 179.413 288.545 179.799 287.835 180.078C287.125 180.35 286.327 180.487 285.44 180.487ZM187.233 214.123V196.123H189.176V198.203H189.415C189.562 197.975 189.767 197.686 190.028 197.333C190.295 196.975 190.676 196.657 191.17 196.379C191.67 196.095 192.347 195.953 193.199 195.953C194.301 195.953 195.273 196.228 196.114 196.779C196.954 197.33 197.611 198.112 198.082 199.123C198.554 200.134 198.79 201.328 198.79 202.703C198.79 204.089 198.554 205.291 198.082 206.308C197.611 207.319 196.957 208.103 196.122 208.66C195.287 209.211 194.324 209.487 193.233 209.487C192.392 209.487 191.719 209.348 191.213 209.069C190.707 208.785 190.318 208.464 190.045 208.106C189.773 207.742 189.562 207.441 189.415 207.203H189.244V214.123H187.233ZM189.21 202.669C189.21 203.657 189.355 204.529 189.645 205.285C189.935 206.035 190.358 206.623 190.915 207.049C191.472 207.47 192.153 207.68 192.96 207.68C193.801 207.68 194.503 207.458 195.065 207.015C195.633 206.566 196.06 205.964 196.344 205.208C196.633 204.447 196.778 203.6 196.778 202.669C196.778 201.748 196.636 200.919 196.352 200.18C196.074 199.436 195.65 198.848 195.082 198.416C194.52 197.978 193.812 197.759 192.96 197.759C192.142 197.759 191.454 197.967 190.898 198.382C190.341 198.791 189.92 199.365 189.636 200.103C189.352 200.836 189.21 201.691 189.21 202.669ZM203.869 201.339V209.214H201.858V191.759H203.869V198.169H204.04C204.347 197.492 204.807 196.955 205.42 196.558C206.04 196.154 206.864 195.953 207.892 195.953C208.784 195.953 209.565 196.132 210.236 196.49C210.906 196.842 211.426 197.384 211.795 198.117C212.17 198.845 212.358 199.771 212.358 200.896V209.214H210.347V201.032C210.347 199.992 210.077 199.188 209.537 198.62C209.003 198.046 208.261 197.759 207.312 197.759C206.653 197.759 206.062 197.899 205.54 198.177C205.023 198.455 204.614 198.862 204.312 199.396C204.017 199.93 203.869 200.578 203.869 201.339ZM219.89 209.521C219.06 209.521 218.307 209.365 217.631 209.052C216.955 208.734 216.418 208.276 216.021 207.68C215.623 207.078 215.424 206.35 215.424 205.498C215.424 204.748 215.572 204.14 215.867 203.674C216.163 203.203 216.557 202.833 217.052 202.566C217.546 202.299 218.092 202.1 218.688 201.97C219.29 201.833 219.896 201.725 220.503 201.646C221.299 201.544 221.944 201.467 222.438 201.416C222.938 201.359 223.302 201.265 223.529 201.134C223.762 201.004 223.878 200.776 223.878 200.453V200.384C223.878 199.544 223.648 198.89 223.188 198.424C222.734 197.958 222.043 197.725 221.117 197.725C220.157 197.725 219.404 197.936 218.859 198.356C218.313 198.776 217.93 199.225 217.708 199.703L215.799 199.021C216.14 198.225 216.594 197.606 217.163 197.163C217.736 196.714 218.361 196.401 219.038 196.225C219.719 196.044 220.39 195.953 221.049 195.953C221.469 195.953 221.952 196.004 222.498 196.106C223.049 196.203 223.58 196.404 224.092 196.711C224.609 197.018 225.038 197.481 225.378 198.1C225.719 198.72 225.89 199.549 225.89 200.589V209.214H223.878V207.441H223.776C223.64 207.725 223.413 208.029 223.094 208.353C222.776 208.677 222.353 208.953 221.824 209.18C221.296 209.407 220.651 209.521 219.89 209.521ZM220.197 207.714C220.992 207.714 221.663 207.558 222.208 207.245C222.759 206.933 223.174 206.529 223.452 206.035C223.736 205.541 223.878 205.021 223.878 204.475V202.634C223.793 202.737 223.606 202.83 223.316 202.916C223.032 202.995 222.702 203.066 222.327 203.129C221.958 203.186 221.597 203.237 221.245 203.282C220.898 203.322 220.617 203.356 220.401 203.384C219.878 203.453 219.39 203.563 218.935 203.717C218.486 203.865 218.123 204.089 217.844 204.39C217.572 204.686 217.435 205.089 217.435 205.6C217.435 206.299 217.694 206.828 218.211 207.186C218.734 207.538 219.396 207.714 220.197 207.714ZM238.834 199.055L237.027 199.566C236.913 199.265 236.746 198.973 236.524 198.688C236.308 198.399 236.013 198.16 235.638 197.973C235.263 197.785 234.783 197.691 234.197 197.691C233.396 197.691 232.729 197.876 232.195 198.245C231.666 198.609 231.402 199.072 231.402 199.634C231.402 200.134 231.584 200.529 231.947 200.819C232.311 201.109 232.879 201.35 233.652 201.544L235.595 202.021C236.766 202.305 237.638 202.74 238.212 203.325C238.785 203.904 239.072 204.651 239.072 205.566C239.072 206.316 238.856 206.987 238.425 207.578C237.999 208.169 237.402 208.634 236.635 208.975C235.868 209.316 234.976 209.487 233.959 209.487C232.624 209.487 231.518 209.197 230.643 208.617C229.768 208.038 229.214 207.191 228.981 206.078L230.891 205.6C231.072 206.305 231.416 206.833 231.922 207.186C232.433 207.538 233.101 207.714 233.925 207.714C234.862 207.714 235.606 207.515 236.158 207.117C236.714 206.714 236.993 206.231 236.993 205.669C236.993 205.214 236.834 204.833 236.516 204.526C236.197 204.214 235.709 203.981 235.05 203.828L232.868 203.316C231.669 203.032 230.788 202.592 230.226 201.995C229.669 201.393 229.391 200.64 229.391 199.737C229.391 198.998 229.598 198.345 230.013 197.776C230.433 197.208 231.004 196.762 231.726 196.438C232.453 196.115 233.277 195.953 234.197 195.953C235.493 195.953 236.51 196.237 237.249 196.805C237.993 197.373 238.521 198.123 238.834 199.055ZM247.589 209.487C246.327 209.487 245.239 209.208 244.324 208.651C243.415 208.089 242.714 207.305 242.219 206.299C241.731 205.288 241.486 204.112 241.486 202.771C241.486 201.43 241.731 200.248 242.219 199.225C242.714 198.197 243.401 197.396 244.282 196.822C245.168 196.242 246.202 195.953 247.384 195.953C248.066 195.953 248.739 196.066 249.404 196.294C250.069 196.521 250.674 196.89 251.219 197.401C251.765 197.907 252.199 198.578 252.523 199.413C252.847 200.248 253.009 201.276 253.009 202.498V203.35H242.918V201.612H250.964C250.964 200.873 250.816 200.214 250.521 199.634C250.231 199.055 249.816 198.598 249.276 198.262C248.742 197.927 248.111 197.759 247.384 197.759C246.583 197.759 245.89 197.958 245.305 198.356C244.725 198.748 244.279 199.259 243.967 199.89C243.654 200.521 243.498 201.197 243.498 201.919V203.078C243.498 204.066 243.668 204.904 244.009 205.592C244.356 206.274 244.836 206.794 245.449 207.151C246.063 207.504 246.776 207.68 247.589 207.68C248.117 207.68 248.594 207.606 249.021 207.458C249.452 207.305 249.824 207.078 250.137 206.776C250.449 206.47 250.691 206.089 250.861 205.634L252.805 206.18C252.6 206.839 252.256 207.419 251.773 207.919C251.29 208.413 250.694 208.799 249.984 209.078C249.273 209.35 248.475 209.487 247.589 209.487ZM262.171 191.759V209.214H260.057V193.975H259.955L255.694 196.805V194.657L260.057 191.759H262.171Z" fill="black"/>
<rect x="171.595" y="190.05" width="256.1" height="44.7761" fill="#808080"/>
<path d="M193.795 205.545H195.909V218.023C195.909 219.136 195.705 220.082 195.295 220.861C194.886 221.639 194.31 222.23 193.565 222.634C192.821 223.037 191.943 223.239 190.932 223.239C189.977 223.239 189.128 223.065 188.384 222.719C187.639 222.366 187.054 221.866 186.628 221.219C186.202 220.571 185.989 219.801 185.989 218.909H188.068C188.068 219.403 188.19 219.835 188.435 220.205C188.685 220.568 189.026 220.852 189.457 221.057C189.889 221.261 190.381 221.364 190.932 221.364C191.54 221.364 192.057 221.236 192.483 220.98C192.909 220.724 193.233 220.349 193.455 219.855C193.682 219.355 193.795 218.744 193.795 218.023V205.545ZM200.145 223V205.545H206.043C207.412 205.545 208.531 205.793 209.401 206.287C210.276 206.776 210.923 207.438 211.344 208.273C211.764 209.108 211.974 210.04 211.974 211.068C211.974 212.097 211.764 213.031 211.344 213.872C210.929 214.713 210.287 215.384 209.418 215.884C208.548 216.378 207.435 216.625 206.077 216.625H201.849V214.75H206.009C206.946 214.75 207.699 214.588 208.267 214.264C208.835 213.94 209.247 213.503 209.503 212.952C209.764 212.395 209.895 211.767 209.895 211.068C209.895 210.369 209.764 209.744 209.503 209.193C209.247 208.642 208.832 208.21 208.259 207.898C207.685 207.58 206.923 207.42 205.974 207.42H202.259V223H200.145ZM222.129 223V205.545H232.663V207.42H224.243V213.318H232.118V215.193H224.243V221.125H232.8V223H222.129ZM245.473 212.841L243.666 213.352C243.553 213.051 243.385 212.759 243.163 212.474C242.947 212.185 242.652 211.946 242.277 211.759C241.902 211.571 241.422 211.477 240.837 211.477C240.036 211.477 239.368 211.662 238.834 212.031C238.305 212.395 238.041 212.858 238.041 213.42C238.041 213.92 238.223 214.315 238.587 214.605C238.95 214.895 239.518 215.136 240.291 215.33L242.234 215.807C243.405 216.091 244.277 216.526 244.851 217.111C245.425 217.69 245.712 218.437 245.712 219.352C245.712 220.102 245.496 220.773 245.064 221.364C244.638 221.955 244.041 222.42 243.274 222.761C242.507 223.102 241.615 223.273 240.598 223.273C239.263 223.273 238.158 222.983 237.283 222.403C236.408 221.824 235.854 220.977 235.621 219.864L237.53 219.386C237.712 220.091 238.055 220.619 238.561 220.972C239.072 221.324 239.74 221.5 240.564 221.5C241.501 221.5 242.246 221.301 242.797 220.903C243.354 220.5 243.632 220.017 243.632 219.455C243.632 219 243.473 218.619 243.155 218.312C242.837 218 242.348 217.767 241.689 217.614L239.507 217.102C238.308 216.818 237.428 216.378 236.865 215.781C236.308 215.179 236.03 214.426 236.03 213.523C236.03 212.784 236.237 212.131 236.652 211.562C237.072 210.994 237.643 210.548 238.365 210.224C239.092 209.901 239.916 209.739 240.837 209.739C242.132 209.739 243.149 210.023 243.888 210.591C244.632 211.159 245.161 211.909 245.473 212.841ZM254.433 209.909V211.614H247.648V209.909H254.433ZM249.626 206.773H251.637V219.25C251.637 219.818 251.719 220.244 251.884 220.528C252.055 220.807 252.271 220.994 252.532 221.091C252.799 221.182 253.08 221.227 253.376 221.227C253.597 221.227 253.779 221.216 253.921 221.193C254.063 221.165 254.177 221.142 254.262 221.125L254.671 222.932C254.535 222.983 254.344 223.034 254.1 223.085C253.856 223.142 253.546 223.17 253.171 223.17C252.603 223.17 252.046 223.048 251.501 222.804C250.961 222.56 250.512 222.188 250.154 221.688C249.802 221.188 249.626 220.557 249.626 219.795V206.773ZM261.31 223.307C260.481 223.307 259.728 223.151 259.052 222.838C258.376 222.52 257.839 222.062 257.441 221.466C257.043 220.864 256.844 220.136 256.844 219.284C256.844 218.534 256.992 217.926 257.288 217.46C257.583 216.989 257.978 216.619 258.472 216.352C258.967 216.085 259.512 215.886 260.109 215.756C260.711 215.619 261.316 215.511 261.924 215.432C262.719 215.33 263.364 215.253 263.859 215.202C264.359 215.145 264.722 215.051 264.95 214.92C265.183 214.79 265.299 214.562 265.299 214.239V214.17C265.299 213.33 265.069 212.676 264.609 212.21C264.154 211.744 263.464 211.511 262.538 211.511C261.577 211.511 260.825 211.722 260.279 212.142C259.734 212.562 259.35 213.011 259.129 213.489L257.219 212.807C257.56 212.011 258.015 211.392 258.583 210.949C259.157 210.5 259.782 210.187 260.458 210.011C261.14 209.83 261.81 209.739 262.469 209.739C262.89 209.739 263.373 209.79 263.918 209.892C264.469 209.989 265.001 210.19 265.512 210.497C266.029 210.804 266.458 211.267 266.799 211.886C267.14 212.506 267.31 213.335 267.31 214.375V223H265.299V221.227H265.197C265.06 221.511 264.833 221.815 264.515 222.139C264.197 222.463 263.773 222.739 263.245 222.966C262.717 223.193 262.072 223.307 261.31 223.307ZM261.617 221.5C262.413 221.5 263.083 221.344 263.629 221.031C264.18 220.719 264.594 220.315 264.873 219.821C265.157 219.327 265.299 218.807 265.299 218.261V216.42C265.214 216.523 265.026 216.616 264.737 216.702C264.452 216.781 264.123 216.852 263.748 216.915C263.379 216.972 263.018 217.023 262.665 217.068C262.319 217.108 262.038 217.142 261.822 217.17C261.299 217.239 260.81 217.349 260.356 217.503C259.907 217.651 259.543 217.875 259.265 218.176C258.992 218.472 258.856 218.875 258.856 219.386C258.856 220.085 259.114 220.614 259.631 220.972C260.154 221.324 260.816 221.5 261.617 221.5ZM276.675 209.909V211.614H269.891V209.909H276.675ZM271.868 206.773H273.879V219.25C273.879 219.818 273.962 220.244 274.126 220.528C274.297 220.807 274.513 220.994 274.774 221.091C275.041 221.182 275.322 221.227 275.618 221.227C275.839 221.227 276.021 221.216 276.163 221.193C276.305 221.165 276.419 221.142 276.504 221.125L276.913 222.932C276.777 222.983 276.587 223.034 276.342 223.085C276.098 223.142 275.788 223.17 275.413 223.17C274.845 223.17 274.288 223.048 273.743 222.804C273.203 222.56 272.754 222.188 272.396 221.688C272.044 221.188 271.868 220.557 271.868 219.795V206.773ZM285.048 223.273C283.787 223.273 282.699 222.994 281.784 222.438C280.875 221.875 280.173 221.091 279.679 220.085C279.19 219.074 278.946 217.898 278.946 216.557C278.946 215.216 279.19 214.034 279.679 213.011C280.173 211.983 280.861 211.182 281.741 210.608C282.628 210.028 283.662 209.739 284.844 209.739C285.526 209.739 286.199 209.852 286.864 210.08C287.528 210.307 288.134 210.676 288.679 211.188C289.224 211.693 289.659 212.364 289.983 213.199C290.307 214.034 290.469 215.062 290.469 216.284V217.136H280.378V215.398H288.423C288.423 214.659 288.276 214 287.98 213.42C287.69 212.841 287.276 212.384 286.736 212.048C286.202 211.713 285.571 211.545 284.844 211.545C284.043 211.545 283.349 211.744 282.764 212.142C282.185 212.534 281.739 213.045 281.426 213.676C281.114 214.307 280.957 214.983 280.957 215.705V216.864C280.957 217.852 281.128 218.69 281.469 219.378C281.815 220.06 282.295 220.58 282.909 220.938C283.523 221.29 284.236 221.466 285.048 221.466C285.577 221.466 286.054 221.392 286.48 221.244C286.912 221.091 287.284 220.864 287.597 220.562C287.909 220.256 288.151 219.875 288.321 219.42L290.264 219.966C290.06 220.625 289.716 221.205 289.233 221.705C288.75 222.199 288.153 222.585 287.443 222.864C286.733 223.136 285.935 223.273 285.048 223.273ZM300.278 227.909V209.909H302.222V211.989H302.46C302.608 211.761 302.813 211.472 303.074 211.119C303.341 210.761 303.722 210.443 304.216 210.165C304.716 209.881 305.392 209.739 306.244 209.739C307.347 209.739 308.318 210.014 309.159 210.565C310 211.116 310.656 211.898 311.128 212.909C311.599 213.92 311.835 215.114 311.835 216.489C311.835 217.875 311.599 219.077 311.128 220.094C310.656 221.105 310.003 221.889 309.168 222.446C308.332 222.997 307.369 223.273 306.278 223.273C305.438 223.273 304.764 223.134 304.259 222.855C303.753 222.571 303.364 222.25 303.091 221.892C302.818 221.528 302.608 221.227 302.46 220.989H302.29V227.909H300.278ZM302.256 216.455C302.256 217.443 302.401 218.315 302.69 219.071C302.98 219.821 303.403 220.409 303.96 220.835C304.517 221.256 305.199 221.466 306.006 221.466C306.847 221.466 307.548 221.244 308.111 220.801C308.679 220.352 309.105 219.75 309.389 218.994C309.679 218.233 309.824 217.386 309.824 216.455C309.824 215.534 309.682 214.705 309.398 213.966C309.119 213.222 308.696 212.634 308.128 212.202C307.565 211.764 306.858 211.545 306.006 211.545C305.188 211.545 304.5 211.753 303.943 212.168C303.386 212.577 302.966 213.151 302.682 213.889C302.398 214.622 302.256 215.477 302.256 216.455ZM316.915 215.125V223H314.903V205.545H316.915V211.955H317.085C317.392 211.278 317.852 210.741 318.466 210.344C319.085 209.94 319.909 209.739 320.938 209.739C321.83 209.739 322.611 209.918 323.281 210.276C323.952 210.628 324.472 211.17 324.841 211.903C325.216 212.631 325.403 213.557 325.403 214.682V223H323.392V214.818C323.392 213.778 323.122 212.974 322.582 212.406C322.048 211.832 321.307 211.545 320.358 211.545C319.699 211.545 319.108 211.685 318.585 211.963C318.068 212.241 317.659 212.648 317.358 213.182C317.063 213.716 316.915 214.364 316.915 215.125ZM332.935 223.307C332.106 223.307 331.353 223.151 330.677 222.838C330.001 222.52 329.464 222.062 329.066 221.466C328.668 220.864 328.469 220.136 328.469 219.284C328.469 218.534 328.617 217.926 328.913 217.46C329.208 216.989 329.603 216.619 330.097 216.352C330.592 216.085 331.137 215.886 331.734 215.756C332.336 215.619 332.941 215.511 333.549 215.432C334.344 215.33 334.989 215.253 335.484 215.202C335.984 215.145 336.347 215.051 336.575 214.92C336.808 214.79 336.924 214.562 336.924 214.239V214.17C336.924 213.33 336.694 212.676 336.234 212.21C335.779 211.744 335.089 211.511 334.163 211.511C333.202 211.511 332.45 211.722 331.904 212.142C331.359 212.562 330.975 213.011 330.754 213.489L328.844 212.807C329.185 212.011 329.64 211.392 330.208 210.949C330.782 210.5 331.407 210.187 332.083 210.011C332.765 209.83 333.435 209.739 334.094 209.739C334.515 209.739 334.998 209.79 335.543 209.892C336.094 209.989 336.626 210.19 337.137 210.497C337.654 210.804 338.083 211.267 338.424 211.886C338.765 212.506 338.935 213.335 338.935 214.375V223H336.924V221.227H336.822C336.685 221.511 336.458 221.815 336.14 222.139C335.822 222.463 335.398 222.739 334.87 222.966C334.342 223.193 333.697 223.307 332.935 223.307ZM333.242 221.5C334.038 221.5 334.708 221.344 335.254 221.031C335.805 220.719 336.219 220.315 336.498 219.821C336.782 219.327 336.924 218.807 336.924 218.261V216.42C336.839 216.523 336.651 216.616 336.362 216.702C336.077 216.781 335.748 216.852 335.373 216.915C335.004 216.972 334.643 217.023 334.29 217.068C333.944 217.108 333.663 217.142 333.447 217.17C332.924 217.239 332.435 217.349 331.981 217.503C331.532 217.651 331.168 217.875 330.89 218.176C330.617 218.472 330.481 218.875 330.481 219.386C330.481 220.085 330.739 220.614 331.256 220.972C331.779 221.324 332.441 221.5 333.242 221.5ZM351.879 212.841L350.072 213.352C349.959 213.051 349.791 212.759 349.57 212.474C349.354 212.185 349.058 211.946 348.683 211.759C348.308 211.571 347.828 211.477 347.243 211.477C346.442 211.477 345.774 211.662 345.24 212.031C344.712 212.395 344.447 212.858 344.447 213.42C344.447 213.92 344.629 214.315 344.993 214.605C345.357 214.895 345.925 215.136 346.697 215.33L348.641 215.807C349.811 216.091 350.683 216.526 351.257 217.111C351.831 217.69 352.118 218.437 352.118 219.352C352.118 220.102 351.902 220.773 351.47 221.364C351.044 221.955 350.447 222.42 349.68 222.761C348.913 223.102 348.021 223.273 347.004 223.273C345.669 223.273 344.564 222.983 343.689 222.403C342.814 221.824 342.26 220.977 342.027 219.864L343.936 219.386C344.118 220.091 344.462 220.619 344.967 220.972C345.479 221.324 346.146 221.5 346.97 221.5C347.908 221.5 348.652 221.301 349.203 220.903C349.76 220.5 350.038 220.017 350.038 219.455C350.038 219 349.879 218.619 349.561 218.312C349.243 218 348.754 217.767 348.095 217.614L345.913 217.102C344.714 216.818 343.834 216.378 343.271 215.781C342.714 215.179 342.436 214.426 342.436 213.523C342.436 212.784 342.643 212.131 343.058 211.562C343.479 210.994 344.05 210.548 344.771 210.224C345.499 209.901 346.322 209.739 347.243 209.739C348.538 209.739 349.555 210.023 350.294 210.591C351.038 211.159 351.567 211.909 351.879 212.841ZM360.634 223.273C359.373 223.273 358.285 222.994 357.37 222.438C356.461 221.875 355.759 221.091 355.265 220.085C354.776 219.074 354.532 217.898 354.532 216.557C354.532 215.216 354.776 214.034 355.265 213.011C355.759 211.983 356.447 211.182 357.327 210.608C358.214 210.028 359.248 209.739 360.43 209.739C361.112 209.739 361.785 209.852 362.45 210.08C363.114 210.307 363.719 210.676 364.265 211.188C364.81 211.693 365.245 212.364 365.569 213.199C365.893 214.034 366.055 215.062 366.055 216.284V217.136H355.964V215.398H364.009C364.009 214.659 363.862 214 363.566 213.42C363.276 212.841 362.862 212.384 362.322 212.048C361.788 211.713 361.157 211.545 360.43 211.545C359.629 211.545 358.935 211.744 358.35 212.142C357.771 212.534 357.325 213.045 357.012 213.676C356.7 214.307 356.543 214.983 356.543 215.705V216.864C356.543 217.852 356.714 218.69 357.055 219.378C357.401 220.06 357.881 220.58 358.495 220.938C359.109 221.29 359.822 221.466 360.634 221.466C361.163 221.466 361.64 221.392 362.066 221.244C362.498 221.091 362.87 220.864 363.183 220.562C363.495 220.256 363.737 219.875 363.907 219.42L365.85 219.966C365.646 220.625 365.302 221.205 364.819 221.705C364.336 222.199 363.739 222.585 363.029 222.864C362.319 223.136 361.521 223.273 360.634 223.273ZM369.08 223V221.466L374.842 215.159C375.518 214.42 376.075 213.778 376.512 213.233C376.95 212.682 377.273 212.165 377.484 211.682C377.7 211.193 377.808 210.682 377.808 210.148C377.808 209.534 377.66 209.003 377.364 208.554C377.075 208.105 376.677 207.759 376.171 207.514C375.665 207.27 375.097 207.148 374.467 207.148C373.796 207.148 373.211 207.287 372.711 207.565C372.217 207.838 371.833 208.222 371.56 208.716C371.293 209.21 371.16 209.79 371.16 210.455H369.148C369.148 209.432 369.384 208.534 369.856 207.761C370.327 206.989 370.969 206.386 371.782 205.955C372.6 205.523 373.518 205.307 374.535 205.307C375.558 205.307 376.464 205.523 377.254 205.955C378.043 206.386 378.663 206.969 379.112 207.702C379.56 208.435 379.785 209.25 379.785 210.148C379.785 210.79 379.668 211.418 379.435 212.031C379.208 212.639 378.81 213.318 378.242 214.068C377.68 214.812 376.898 215.722 375.898 216.795L371.978 220.989V221.125H380.092V223H369.08Z" fill="black"/>
<path d="M195.795 244.545H197.909V257.023C197.909 258.136 197.705 259.082 197.295 259.861C196.886 260.639 196.31 261.23 195.565 261.634C194.821 262.037 193.943 262.239 192.932 262.239C191.977 262.239 191.128 262.065 190.384 261.719C189.639 261.366 189.054 260.866 188.628 260.219C188.202 259.571 187.989 258.801 187.989 257.909H190.068C190.068 258.403 190.19 258.835 190.435 259.205C190.685 259.568 191.026 259.852 191.457 260.057C191.889 260.261 192.381 260.364 192.932 260.364C193.54 260.364 194.057 260.236 194.483 259.98C194.909 259.724 195.233 259.349 195.455 258.855C195.682 258.355 195.795 257.744 195.795 257.023V244.545ZM202.145 262V244.545H208.043C209.412 244.545 210.531 244.793 211.401 245.287C212.276 245.776 212.923 246.438 213.344 247.273C213.764 248.108 213.974 249.04 213.974 250.068C213.974 251.097 213.764 252.031 213.344 252.872C212.929 253.713 212.287 254.384 211.418 254.884C210.548 255.378 209.435 255.625 208.077 255.625H203.849V253.75H208.009C208.946 253.75 209.699 253.588 210.267 253.264C210.835 252.94 211.247 252.503 211.503 251.952C211.764 251.395 211.895 250.767 211.895 250.068C211.895 249.369 211.764 248.744 211.503 248.193C211.247 247.642 210.832 247.21 210.259 246.898C209.685 246.58 208.923 246.42 207.974 246.42H204.259V262H202.145ZM222.284 262.273C221.102 262.273 220.065 261.991 219.173 261.429C218.287 260.866 217.594 260.08 217.094 259.068C216.599 258.057 216.352 256.875 216.352 255.523C216.352 254.159 216.599 252.969 217.094 251.952C217.594 250.935 218.287 250.145 219.173 249.582C220.065 249.02 221.102 248.739 222.284 248.739C223.466 248.739 224.5 249.02 225.386 249.582C226.278 250.145 226.972 250.935 227.466 251.952C227.966 252.969 228.216 254.159 228.216 255.523C228.216 256.875 227.966 258.057 227.466 259.068C226.972 260.08 226.278 260.866 225.386 261.429C224.5 261.991 223.466 262.273 222.284 262.273ZM222.284 260.466C223.182 260.466 223.92 260.236 224.5 259.776C225.08 259.315 225.509 258.71 225.787 257.96C226.065 257.21 226.205 256.398 226.205 255.523C226.205 254.648 226.065 253.832 225.787 253.077C225.509 252.321 225.08 251.71 224.5 251.244C223.92 250.778 223.182 250.545 222.284 250.545C221.386 250.545 220.648 250.778 220.068 251.244C219.489 251.71 219.06 252.321 218.781 253.077C218.503 253.832 218.364 254.648 218.364 255.523C218.364 256.398 218.503 257.21 218.781 257.96C219.06 258.71 219.489 259.315 220.068 259.776C220.648 260.236 221.386 260.466 222.284 260.466ZM231.286 262V248.909H233.298V262H231.286ZM232.309 246.727C231.917 246.727 231.579 246.594 231.295 246.327C231.016 246.06 230.877 245.739 230.877 245.364C230.877 244.989 231.016 244.668 231.295 244.401C231.579 244.134 231.917 244 232.309 244C232.701 244 233.036 244.134 233.315 244.401C233.599 244.668 233.741 244.989 233.741 245.364C233.741 245.739 233.599 246.06 233.315 246.327C233.036 246.594 232.701 246.727 232.309 246.727ZM238.993 254.125V262H236.982V248.909H238.925V250.955H239.095C239.402 250.29 239.868 249.756 240.493 249.352C241.118 248.943 241.925 248.739 242.913 248.739C243.8 248.739 244.575 248.92 245.24 249.284C245.905 249.642 246.422 250.188 246.791 250.92C247.161 251.648 247.345 252.568 247.345 253.682V262H245.334V253.818C245.334 252.79 245.067 251.989 244.533 251.415C243.999 250.835 243.266 250.545 242.334 250.545C241.692 250.545 241.118 250.685 240.612 250.963C240.112 251.241 239.717 251.648 239.428 252.182C239.138 252.716 238.993 253.364 238.993 254.125ZM256.714 248.909V250.614H249.93V248.909H256.714ZM251.907 245.773H253.918V258.25C253.918 258.818 254.001 259.244 254.165 259.528C254.336 259.807 254.552 259.994 254.813 260.091C255.08 260.182 255.362 260.227 255.657 260.227C255.879 260.227 256.06 260.216 256.202 260.193C256.344 260.165 256.458 260.142 256.543 260.125L256.952 261.932C256.816 261.983 256.626 262.034 256.381 262.085C256.137 262.142 255.827 262.17 255.452 262.17C254.884 262.17 254.327 262.048 253.782 261.804C253.242 261.56 252.793 261.188 252.435 260.688C252.083 260.188 251.907 259.557 251.907 258.795V245.773ZM266.762 262V244.545H277.296V246.42H268.876V252.318H276.751V254.193H268.876V260.125H277.433V262H266.762ZM290.106 251.841L288.299 252.352C288.185 252.051 288.018 251.759 287.796 251.474C287.58 251.185 287.285 250.946 286.91 250.759C286.535 250.571 286.055 250.477 285.469 250.477C284.668 250.477 284.001 250.662 283.467 251.031C282.938 251.395 282.674 251.858 282.674 252.42C282.674 252.92 282.856 253.315 283.219 253.605C283.583 253.895 284.151 254.136 284.924 254.33L286.867 254.807C288.038 255.091 288.91 255.526 289.484 256.111C290.058 256.69 290.344 257.437 290.344 258.352C290.344 259.102 290.129 259.773 289.697 260.364C289.271 260.955 288.674 261.42 287.907 261.761C287.14 262.102 286.248 262.273 285.231 262.273C283.896 262.273 282.79 261.983 281.915 261.403C281.04 260.824 280.487 259.977 280.254 258.864L282.163 258.386C282.344 259.091 282.688 259.619 283.194 259.972C283.705 260.324 284.373 260.5 285.197 260.5C286.134 260.5 286.879 260.301 287.43 259.903C287.987 259.5 288.265 259.017 288.265 258.455C288.265 258 288.106 257.619 287.788 257.312C287.469 257 286.981 256.767 286.322 256.614L284.14 256.102C282.941 255.818 282.06 255.378 281.498 254.781C280.941 254.179 280.663 253.426 280.663 252.523C280.663 251.784 280.87 251.131 281.285 250.562C281.705 249.994 282.276 249.548 282.998 249.224C283.725 248.901 284.549 248.739 285.469 248.739C286.765 248.739 287.782 249.023 288.521 249.591C289.265 250.159 289.793 250.909 290.106 251.841ZM299.065 248.909V250.614H292.281V248.909H299.065ZM294.259 245.773H296.27V258.25C296.27 258.818 296.352 259.244 296.517 259.528C296.688 259.807 296.903 259.994 297.165 260.091C297.432 260.182 297.713 260.227 298.009 260.227C298.23 260.227 298.412 260.216 298.554 260.193C298.696 260.165 298.81 260.142 298.895 260.125L299.304 261.932C299.168 261.983 298.977 262.034 298.733 262.085C298.489 262.142 298.179 262.17 297.804 262.17C297.236 262.17 296.679 262.048 296.134 261.804C295.594 261.56 295.145 261.188 294.787 260.688C294.435 260.188 294.259 259.557 294.259 258.795V245.773ZM305.943 262.307C305.114 262.307 304.361 262.151 303.685 261.838C303.009 261.52 302.472 261.062 302.074 260.466C301.676 259.864 301.477 259.136 301.477 258.284C301.477 257.534 301.625 256.926 301.92 256.46C302.216 255.989 302.611 255.619 303.105 255.352C303.599 255.085 304.145 254.886 304.741 254.756C305.344 254.619 305.949 254.511 306.557 254.432C307.352 254.33 307.997 254.253 308.491 254.202C308.991 254.145 309.355 254.051 309.582 253.92C309.815 253.79 309.932 253.562 309.932 253.239V253.17C309.932 252.33 309.702 251.676 309.241 251.21C308.787 250.744 308.097 250.511 307.17 250.511C306.21 250.511 305.457 250.722 304.912 251.142C304.366 251.562 303.983 252.011 303.761 252.489L301.852 251.807C302.193 251.011 302.648 250.392 303.216 249.949C303.79 249.5 304.415 249.187 305.091 249.011C305.773 248.83 306.443 248.739 307.102 248.739C307.523 248.739 308.006 248.79 308.551 248.892C309.102 248.989 309.634 249.19 310.145 249.497C310.662 249.804 311.091 250.267 311.432 250.886C311.773 251.506 311.943 252.335 311.943 253.375V262H309.932V260.227H309.83C309.693 260.511 309.466 260.815 309.148 261.139C308.83 261.463 308.406 261.739 307.878 261.966C307.349 262.193 306.705 262.307 305.943 262.307ZM306.25 260.5C307.045 260.5 307.716 260.344 308.261 260.031C308.813 259.719 309.227 259.315 309.506 258.821C309.79 258.327 309.932 257.807 309.932 257.261V255.42C309.847 255.523 309.659 255.616 309.369 255.702C309.085 255.781 308.756 255.852 308.381 255.915C308.011 255.972 307.651 256.023 307.298 256.068C306.952 256.108 306.67 256.142 306.455 256.17C305.932 256.239 305.443 256.349 304.989 256.503C304.54 256.651 304.176 256.875 303.898 257.176C303.625 257.472 303.489 257.875 303.489 258.386C303.489 259.085 303.747 259.614 304.264 259.972C304.787 260.324 305.449 260.5 306.25 260.5ZM321.308 248.909V250.614H314.523V248.909H321.308ZM316.501 245.773H318.512V258.25C318.512 258.818 318.594 259.244 318.759 259.528C318.93 259.807 319.146 259.994 319.407 260.091C319.674 260.182 319.955 260.227 320.251 260.227C320.472 260.227 320.654 260.216 320.796 260.193C320.938 260.165 321.052 260.142 321.137 260.125L321.546 261.932C321.41 261.983 321.219 262.034 320.975 262.085C320.731 262.142 320.421 262.17 320.046 262.17C319.478 262.17 318.921 262.048 318.376 261.804C317.836 261.56 317.387 261.188 317.029 260.688C316.677 260.188 316.501 259.557 316.501 258.795V245.773ZM329.681 262.273C328.42 262.273 327.332 261.994 326.417 261.438C325.508 260.875 324.806 260.091 324.312 259.085C323.823 258.074 323.579 256.898 323.579 255.557C323.579 254.216 323.823 253.034 324.312 252.011C324.806 250.983 325.494 250.182 326.374 249.608C327.261 249.028 328.295 248.739 329.477 248.739C330.158 248.739 330.832 248.852 331.496 249.08C332.161 249.307 332.766 249.676 333.312 250.188C333.857 250.693 334.292 251.364 334.616 252.199C334.94 253.034 335.102 254.062 335.102 255.284V256.136H325.011V254.398H333.056C333.056 253.659 332.908 253 332.613 252.42C332.323 251.841 331.908 251.384 331.369 251.048C330.835 250.713 330.204 250.545 329.477 250.545C328.675 250.545 327.982 250.744 327.397 251.142C326.817 251.534 326.371 252.045 326.059 252.676C325.746 253.307 325.59 253.983 325.59 254.705V255.864C325.59 256.852 325.761 257.69 326.102 258.378C326.448 259.06 326.928 259.58 327.542 259.938C328.156 260.29 328.869 260.466 329.681 260.466C330.21 260.466 330.687 260.392 331.113 260.244C331.545 260.091 331.917 259.864 332.229 259.562C332.542 259.256 332.783 258.875 332.954 258.42L334.897 258.966C334.692 259.625 334.349 260.205 333.866 260.705C333.383 261.199 332.786 261.585 332.076 261.864C331.366 262.136 330.567 262.273 329.681 262.273Z" fill="black"/>
<path d="M372.46 107.058L384.424 96.1087C384.984 95.5963 385.697 95.3615 386.407 95.456C387.117 95.5506 387.766 95.9667 388.21 96.6128C388.654 97.2589 388.857 98.0822 388.775 98.9014C388.693 99.7207 388.333 100.469 387.773 100.981L377.217 110.642M377.92 109.998L380.735 107.422C381.295 106.909 382.009 106.675 382.719 106.769C383.429 106.864 384.077 107.28 384.521 107.926C384.965 108.572 385.169 109.395 385.087 110.215C385.005 111.034 384.644 111.782 384.084 112.294L380.565 115.515M382.677 113.583C383.237 113.07 383.95 112.835 384.66 112.93C385.37 113.024 386.018 113.44 386.462 114.087C386.907 114.733 387.11 115.556 387.028 116.375C386.946 117.194 386.586 117.943 386.026 118.455L383.914 120.387" stroke="black" stroke-width="2" stroke-linecap="round" stroke-linejoin="round"/>
<path d="M384.618 119.743C385.178 119.231 385.892 118.996 386.601 119.091C387.311 119.185 387.96 119.601 388.404 120.247C388.848 120.893 389.051 121.717 388.97 122.536C388.888 123.355 388.527 124.103 387.967 124.616L381.633 130.412C379.394 132.462 376.54 133.401 373.7 133.023C370.86 132.645 368.267 130.981 366.491 128.396L364.258 125.148L364.49 125.486C363.381 123.872 362.636 121.966 362.323 119.938C362.009 117.91 362.138 115.824 362.696 113.867L362.899 113.163C363.224 112.039 364.689 107.801 367.293 100.447C367.558 99.6974 368.067 99.0968 368.71 98.773C369.353 98.4491 370.081 98.4276 370.737 98.7131C372.176 99.3384 373.063 101.013 372.888 102.777L372.46 107.058" stroke="black" stroke-width="2" stroke-linecap="round" stroke-linejoin="round"/>
<path d="M150.852 228.451L162.816 217.502C163.376 216.989 164.089 216.754 164.799 216.849C165.509 216.944 166.158 217.36 166.602 218.006C167.046 218.652 167.249 219.475 167.167 220.294C167.085 221.114 166.725 221.862 166.165 222.374L155.609 232.035M156.312 231.391L159.127 228.815C159.687 228.302 160.401 228.068 161.111 228.162C161.821 228.257 162.469 228.673 162.913 229.319C163.357 229.965 163.561 230.788 163.479 231.608C163.397 232.427 163.036 233.175 162.476 233.687L158.957 236.908M161.069 234.975C161.629 234.463 162.342 234.228 163.052 234.323C163.762 234.417 164.41 234.833 164.854 235.48C165.298 236.126 165.502 236.949 165.42 237.768C165.338 238.587 164.978 239.336 164.418 239.848L162.306 241.78" stroke="black" stroke-width="2" stroke-linecap="round" stroke-linejoin="round"/>
<path d="M163.01 241.136C163.57 240.624 164.283 240.389 164.993 240.483C165.703 240.578 166.352 240.994 166.796 241.64C167.24 242.286 167.443 243.11 167.361 243.929C167.279 244.748 166.919 245.496 166.359 246.009L160.025 251.805C157.785 253.855 154.932 254.794 152.092 254.416C149.252 254.038 146.659 252.374 144.882 249.789L142.65 246.541L142.882 246.879C141.773 245.265 141.028 243.359 140.714 241.331C140.401 239.303 140.529 237.217 141.087 235.26L141.291 234.555C141.616 233.432 143.081 229.194 145.685 221.84C145.95 221.09 146.459 220.49 147.102 220.166C147.745 219.842 148.472 219.821 149.129 220.106C150.568 220.731 151.455 222.406 151.28 224.17L150.852 228.451" stroke="black" stroke-width="2" stroke-linecap="round" stroke-linejoin="round"/>
<path d="M574.019 223.231L580.936 207.522C581.26 206.787 581.824 206.231 582.503 205.975C583.182 205.719 583.922 205.785 584.559 206.159C585.196 206.532 585.679 207.183 585.9 207.967C586.122 208.751 586.065 209.604 585.741 210.34L579.638 224.2M580.045 223.276L581.672 219.58C581.996 218.845 582.559 218.288 583.239 218.032C583.918 217.777 584.658 217.843 585.295 218.216C585.932 218.59 586.415 219.24 586.636 220.024C586.858 220.808 586.8 221.662 586.477 222.397L584.442 227.017M585.663 224.245C585.987 223.51 586.55 222.953 587.23 222.698C587.909 222.442 588.649 222.508 589.286 222.882C589.923 223.255 590.406 223.905 590.627 224.69C590.849 225.474 590.791 226.327 590.468 227.062L589.247 229.834" stroke="black" stroke-width="2" stroke-linecap="round" stroke-linejoin="round"/>
<path d="M589.654 228.91C589.978 228.175 590.541 227.618 591.221 227.363C591.9 227.107 592.64 227.173 593.277 227.547C593.914 227.92 594.396 228.571 594.618 229.355C594.84 230.139 594.782 230.992 594.458 231.727L590.797 240.044C589.502 242.985 587.247 245.211 584.53 246.234C581.812 247.257 578.853 246.992 576.305 245.498L573.102 243.62L573.435 243.815C571.843 242.883 570.477 241.508 569.46 239.816C568.442 238.124 567.805 236.166 567.605 234.119L567.535 233.381C567.425 232.203 567.224 227.646 566.934 219.709C566.904 218.9 567.149 218.11 567.616 217.506C568.084 216.902 568.737 216.532 569.437 216.476C570.971 216.352 572.383 217.447 572.861 219.134L574.019 223.231" stroke="black" stroke-width="2" stroke-linecap="round" stroke-linejoin="round"/>
<rect x="475.121" y="148.259" width="306.548" height="58.7065" fill="#6D1616"/>
<path d="M489.021 168.545L493.24 181.807H493.402L497.629 168.545H501.72L495.703 186H490.947L484.922 168.545H489.021ZM507.511 168.545V186H503.821V168.545H507.511ZM510.547 186V168.545H522.309V171.588H514.238V175.747H521.704V178.79H514.238V182.957H522.343V186H510.547ZM529.172 186L524.177 168.545H528.209L531.098 180.673H531.243L534.43 168.545H537.882L541.061 180.699H541.214L544.103 168.545H548.135L543.14 186H539.544L536.22 174.588H536.084L532.768 186H529.172ZM565.133 173.565C565.065 172.878 564.772 172.344 564.255 171.963C563.738 171.582 563.037 171.392 562.15 171.392C561.548 171.392 561.04 171.477 560.625 171.648C560.21 171.812 559.892 172.043 559.67 172.338C559.454 172.634 559.346 172.969 559.346 173.344C559.335 173.656 559.4 173.929 559.542 174.162C559.69 174.395 559.892 174.597 560.147 174.767C560.403 174.932 560.699 175.077 561.034 175.202C561.369 175.321 561.727 175.423 562.108 175.509L563.676 175.884C564.437 176.054 565.136 176.281 565.772 176.565C566.409 176.849 566.96 177.199 567.426 177.614C567.892 178.028 568.253 178.517 568.508 179.08C568.77 179.642 568.903 180.287 568.909 181.014C568.903 182.082 568.63 183.009 568.091 183.793C567.557 184.571 566.784 185.176 565.772 185.608C564.767 186.034 563.554 186.247 562.133 186.247C560.724 186.247 559.497 186.031 558.451 185.599C557.412 185.168 556.599 184.528 556.014 183.682C555.434 182.83 555.13 181.776 555.102 180.52H558.673C558.713 181.105 558.88 181.594 559.176 181.986C559.477 182.372 559.878 182.665 560.378 182.864C560.883 183.057 561.454 183.153 562.091 183.153C562.716 183.153 563.258 183.062 563.718 182.881C564.184 182.699 564.545 182.446 564.801 182.122C565.057 181.798 565.184 181.426 565.184 181.006C565.184 180.614 565.068 180.284 564.835 180.017C564.608 179.75 564.272 179.523 563.829 179.335C563.392 179.148 562.855 178.977 562.218 178.824L560.318 178.347C558.846 177.989 557.684 177.429 556.832 176.668C555.98 175.906 555.557 174.881 555.562 173.591C555.557 172.534 555.838 171.611 556.406 170.821C556.98 170.031 557.767 169.415 558.767 168.972C559.767 168.528 560.903 168.307 562.176 168.307C563.471 168.307 564.602 168.528 565.568 168.972C566.54 169.415 567.295 170.031 567.835 170.821C568.375 171.611 568.653 172.526 568.67 173.565H565.133ZM571.391 186V168.545H575.081V175.747H582.573V168.545H586.255V186H582.573V178.79H575.081V186H571.391ZM605.337 177.273C605.337 179.176 604.976 180.795 604.255 182.131C603.539 183.466 602.562 184.486 601.323 185.19C600.09 185.889 598.704 186.239 597.164 186.239C595.613 186.239 594.221 185.886 592.988 185.182C591.755 184.477 590.78 183.457 590.064 182.122C589.348 180.787 588.991 179.17 588.991 177.273C588.991 175.369 589.348 173.75 590.064 172.415C590.78 171.08 591.755 170.062 592.988 169.364C594.221 168.659 595.613 168.307 597.164 168.307C598.704 168.307 600.09 168.659 601.323 169.364C602.562 170.062 603.539 171.08 604.255 172.415C604.976 173.75 605.337 175.369 605.337 177.273ZM601.596 177.273C601.596 176.04 601.411 175 601.042 174.153C600.678 173.307 600.164 172.665 599.499 172.227C598.834 171.79 598.056 171.571 597.164 171.571C596.272 171.571 595.493 171.79 594.829 172.227C594.164 172.665 593.647 173.307 593.277 174.153C592.914 175 592.732 176.04 592.732 177.273C592.732 178.506 592.914 179.545 593.277 180.392C593.647 181.239 594.164 181.881 594.829 182.318C595.493 182.756 596.272 182.974 597.164 182.974C598.056 182.974 598.834 182.756 599.499 182.318C600.164 181.881 600.678 181.239 601.042 180.392C601.411 179.545 601.596 178.506 601.596 177.273ZM608.071 186V168.545H614.957C616.281 168.545 617.409 168.798 618.341 169.304C619.272 169.804 619.983 170.5 620.471 171.392C620.966 172.278 621.213 173.301 621.213 174.46C621.213 175.619 620.963 176.642 620.463 177.528C619.963 178.415 619.238 179.105 618.29 179.599C617.346 180.094 616.204 180.341 614.863 180.341H610.474V177.384H614.267C614.977 177.384 615.562 177.261 616.022 177.017C616.488 176.767 616.835 176.423 617.062 175.986C617.295 175.543 617.412 175.034 617.412 174.46C617.412 173.881 617.295 173.375 617.062 172.943C616.835 172.506 616.488 172.168 616.022 171.929C615.557 171.685 614.966 171.562 614.25 171.562H611.761V186H608.071ZM633.079 173.565C633.01 172.878 632.718 172.344 632.201 171.963C631.684 171.582 630.982 171.392 630.096 171.392C629.493 171.392 628.985 171.477 628.57 171.648C628.155 171.812 627.837 172.043 627.616 172.338C627.4 172.634 627.292 172.969 627.292 173.344C627.28 173.656 627.346 173.929 627.488 174.162C627.635 174.395 627.837 174.597 628.093 174.767C628.348 174.932 628.644 175.077 628.979 175.202C629.314 175.321 629.672 175.423 630.053 175.509L631.621 175.884C632.383 176.054 633.081 176.281 633.718 176.565C634.354 176.849 634.905 177.199 635.371 177.614C635.837 178.028 636.198 178.517 636.454 179.08C636.715 179.642 636.848 180.287 636.854 181.014C636.848 182.082 636.576 183.009 636.036 183.793C635.502 184.571 634.729 185.176 633.718 185.608C632.712 186.034 631.499 186.247 630.079 186.247C628.669 186.247 627.442 186.031 626.397 185.599C625.357 185.168 624.544 184.528 623.959 183.682C623.38 182.83 623.076 181.776 623.047 180.52H626.618C626.658 181.105 626.826 181.594 627.121 181.986C627.422 182.372 627.823 182.665 628.323 182.864C628.829 183.057 629.4 183.153 630.036 183.153C630.661 183.153 631.204 183.062 631.664 182.881C632.13 182.699 632.491 182.446 632.746 182.122C633.002 181.798 633.13 181.426 633.13 181.006C633.13 180.614 633.013 180.284 632.78 180.017C632.553 179.75 632.218 179.523 631.775 179.335C631.337 179.148 630.8 178.977 630.164 178.824L628.263 178.347C626.792 177.989 625.63 177.429 624.777 176.668C623.925 175.906 623.502 174.881 623.508 173.591C623.502 172.534 623.783 171.611 624.351 170.821C624.925 170.031 625.712 169.415 626.712 168.972C627.712 168.528 628.848 168.307 630.121 168.307C631.417 168.307 632.547 168.528 633.513 168.972C634.485 169.415 635.241 170.031 635.78 170.821C636.32 171.611 636.598 172.526 636.616 173.565H633.079ZM646.87 167.727L641.245 188.625H638.118L643.743 167.727H646.87ZM652.052 168.545L656.271 181.807H656.433L660.66 168.545H664.751L658.734 186H653.978L647.953 168.545H652.052ZM666.852 186V168.545H678.613V171.588H670.542V175.747H678.008V178.79H670.542V182.957H678.647V186H666.852ZM696.147 168.545V186H692.959L685.366 175.014H685.238V186H681.547V168.545H684.786L692.32 179.523H692.473V168.545H696.147ZM705.383 186H699.196V168.545H705.434C707.19 168.545 708.701 168.895 709.968 169.594C711.236 170.287 712.21 171.284 712.892 172.585C713.579 173.886 713.923 175.443 713.923 177.256C713.923 179.074 713.579 180.636 712.892 181.943C712.21 183.25 711.23 184.253 709.951 184.952C708.679 185.651 707.156 186 705.383 186ZM702.886 182.838H705.23C706.321 182.838 707.238 182.645 707.983 182.259C708.733 181.866 709.295 181.261 709.67 180.443C710.051 179.619 710.241 178.557 710.241 177.256C710.241 175.966 710.051 174.912 709.67 174.094C709.295 173.276 708.736 172.673 707.991 172.287C707.247 171.901 706.329 171.707 705.238 171.707H702.886V182.838ZM732.696 177.273C732.696 179.176 732.336 180.795 731.614 182.131C730.898 183.466 729.921 184.486 728.682 185.19C727.449 185.889 726.063 186.239 724.523 186.239C722.972 186.239 721.58 185.886 720.347 185.182C719.114 184.477 718.14 183.457 717.424 182.122C716.708 180.787 716.35 179.17 716.35 177.273C716.35 175.369 716.708 173.75 717.424 172.415C718.14 171.08 719.114 170.062 720.347 169.364C721.58 168.659 722.972 168.307 724.523 168.307C726.063 168.307 727.449 168.659 728.682 169.364C729.921 170.062 730.898 171.08 731.614 172.415C732.336 173.75 732.696 175.369 732.696 177.273ZM728.955 177.273C728.955 176.04 728.77 175 728.401 174.153C728.037 173.307 727.523 172.665 726.858 172.227C726.194 171.79 725.415 171.571 724.523 171.571C723.631 171.571 722.853 171.79 722.188 172.227C721.523 172.665 721.006 173.307 720.637 174.153C720.273 175 720.091 176.04 720.091 177.273C720.091 178.506 720.273 179.545 720.637 180.392C721.006 181.239 721.523 181.881 722.188 182.318C722.853 182.756 723.631 182.974 724.523 182.974C725.415 182.974 726.194 182.756 726.858 182.318C727.523 181.881 728.037 181.239 728.401 180.392C728.77 179.545 728.955 178.506 728.955 177.273ZM735.43 186V168.545H742.316C743.635 168.545 744.76 168.781 745.691 169.253C746.629 169.719 747.342 170.381 747.831 171.239C748.325 172.091 748.572 173.094 748.572 174.247C748.572 175.406 748.322 176.403 747.822 177.239C747.322 178.068 746.598 178.705 745.649 179.148C744.706 179.591 743.564 179.812 742.223 179.812H737.612V176.847H741.626C742.331 176.847 742.916 176.75 743.382 176.557C743.848 176.364 744.194 176.074 744.422 175.688C744.655 175.301 744.771 174.821 744.771 174.247C744.771 173.668 744.655 173.179 744.422 172.781C744.194 172.384 743.845 172.082 743.373 171.878C742.907 171.668 742.319 171.562 741.609 171.562H739.12V186H735.43ZM744.856 178.057L749.194 186H745.12L740.876 178.057H744.856ZM760.649 173.565C760.581 172.878 760.288 172.344 759.771 171.963C759.254 171.582 758.552 171.392 757.666 171.392C757.064 171.392 756.555 171.477 756.14 171.648C755.726 171.812 755.407 172.043 755.186 172.338C754.97 172.634 754.862 172.969 754.862 173.344C754.851 173.656 754.916 173.929 755.058 174.162C755.206 174.395 755.407 174.597 755.663 174.767C755.919 174.932 756.214 175.077 756.549 175.202C756.885 175.321 757.243 175.423 757.623 175.509L759.191 175.884C759.953 176.054 760.652 176.281 761.288 176.565C761.924 176.849 762.476 177.199 762.941 177.614C763.407 178.028 763.768 178.517 764.024 179.08C764.285 179.642 764.419 180.287 764.424 181.014C764.419 182.082 764.146 183.009 763.606 183.793C763.072 184.571 762.299 185.176 761.288 185.608C760.282 186.034 759.069 186.247 757.649 186.247C756.24 186.247 755.013 186.031 753.967 185.599C752.927 185.168 752.115 184.528 751.53 183.682C750.95 182.83 750.646 181.776 750.618 180.52H754.189C754.228 181.105 754.396 181.594 754.691 181.986C754.993 182.372 755.393 182.665 755.893 182.864C756.399 183.057 756.97 183.153 757.606 183.153C758.231 183.153 758.774 183.062 759.234 182.881C759.7 182.699 760.061 182.446 760.316 182.122C760.572 181.798 760.7 181.426 760.7 181.006C760.7 180.614 760.584 180.284 760.351 180.017C760.123 179.75 759.788 179.523 759.345 179.335C758.907 179.148 758.37 178.977 757.734 178.824L755.834 178.347C754.362 177.989 753.2 177.429 752.348 176.668C751.495 175.906 751.072 174.881 751.078 173.591C751.072 172.534 751.353 171.611 751.922 170.821C752.495 170.031 753.282 169.415 754.282 168.972C755.282 168.528 756.419 168.307 757.691 168.307C758.987 168.307 760.118 168.528 761.084 168.972C762.055 169.415 762.811 170.031 763.351 170.821C763.89 171.611 764.169 172.526 764.186 173.565H760.649Z" fill="white"/>
</svg>
