<svg width="26" height="26" viewBox="0 0 26 26" fill="none" xmlns="http://www.w3.org/2000/svg">
<path d="M13.0015 12.3119C16.1132 12.3119 18.6358 9.77964 18.6358 6.65595C18.6358 3.53225 16.1132 1 13.0015 1C9.88975 1 7.36719 3.53225 7.36719 6.65595C7.36719 9.77964 9.88975 12.3119 13.0015 12.3119Z" stroke="white" stroke-linecap="round" stroke-linejoin="round"/>
<path d="M24.9636 25.0004H1.03653C1.01219 24.6951 1 24.389 1 24.0828C1 20.9611 2.26429 17.9673 4.51473 15.7599C6.76518 13.5526 9.81743 12.3125 13 12.3125C14.5759 12.3125 16.1364 12.6169 17.5923 13.2085C19.0482 13.8 20.3711 14.667 21.4854 15.7599C22.5997 16.8529 23.4836 18.1505 24.0867 19.5785C24.6897 21.0065 25.0001 22.5371 25.0001 24.0828C25.0001 24.3891 24.9879 24.6952 24.9636 25.0006" stroke="white" stroke-linecap="round" stroke-linejoin="round"/>
</svg>
