<svg width="24" height="25" viewBox="0 0 24 25" fill="none" xmlns="http://www.w3.org/2000/svg">
<path d="M3.84187 6.71973L1.92188 23.5197H22.0819L20.1619 6.71973H3.84187Z" stroke="white" stroke-miterlimit="10" stroke-linecap="round"/>
<path d="M16.3197 9.11996C16.3197 8.52428 16.3197 5.87564 16.3197 5.27996C16.3197 2.89388 14.3858 0.959961 11.9997 0.959961C9.61361 0.959961 7.67969 2.89388 7.67969 5.27996C7.67969 5.87564 7.67969 8.52428 7.67969 9.11996" stroke="white" stroke-miterlimit="10" stroke-linecap="round"/>
<path d="M16.3194 10.0802C16.8496 10.0802 17.2794 9.65035 17.2794 9.12016C17.2794 8.58996 16.8496 8.16016 16.3194 8.16016C15.7892 8.16016 15.3594 8.58996 15.3594 9.12016C15.3594 9.65035 15.7892 10.0802 16.3194 10.0802Z" fill="white"/>
<path d="M7.67875 10.0802C8.20894 10.0802 8.63875 9.65035 8.63875 9.12016C8.63875 8.58996 8.20894 8.16016 7.67875 8.16016C7.14856 8.16016 6.71875 8.58996 6.71875 9.12016C6.71875 9.65035 7.14856 10.0802 7.67875 10.0802Z" fill="white"/>
</svg>
