<svg width="20" height="19" viewBox="0 0 20 19" fill="none" xmlns="http://www.w3.org/2000/svg">
<path d="M10 19C9.92792 19 9.85583 18.9804 9.79125 18.9413C9.69167 18.8813 7.3275 17.4431 4.92542 15.126C1.65708 11.9736 0 8.85847 0 5.86769C0 1.83637 2.61625 0 5.04708 0C6.92167 0 9.01792 1.1179 10 3.57668C10.9821 1.1179 13.0788 0 14.9529 0C17.3838 0 20 1.83637 20 5.86769C20 8.85847 18.3429 11.9736 15.0746 15.126C12.6725 17.4431 10.3083 18.8818 10.2087 18.9413C10.1442 18.9804 10.0721 19 10 19ZM5.04708 0.869287C3.0175 0.869287 0.833333 2.43357 0.833333 5.86769C0.833333 11.8931 8.61417 17.1667 10 18.0577C11.3846 17.1662 19.1667 11.8888 19.1667 5.86769C19.1667 2.43357 16.9825 0.869287 14.9529 0.869287C13.0892 0.869287 10.9612 2.20016 10.4092 5.17356C10.3712 5.37784 10.1996 5.52562 10 5.52562C9.80042 5.52562 9.62875 5.37784 9.59083 5.17356C9.03875 2.2006 6.91083 0.869287 5.04708 0.869287Z" fill="white"/>
</svg>
