<svg width="24" height="22" viewBox="0 0 24 22" fill="none" xmlns="http://www.w3.org/2000/svg">
<path fill-rule="evenodd" clip-rule="evenodd" d="M12.4385 21.8111L12 22L11.5615 21.8111C5.92473 18.4117 0 10.6737 0 6.37602C0.0190909 2.85692 2.94764 0 6.54545 0C8.81945 0 10.8267 1.14191 12 2.87034C13.1733 1.14191 15.1805 0 17.4545 0C21.0524 0 23.9809 2.85692 24 6.37602C24 10.6737 18.0753 18.4117 12.4385 21.8111ZM17.4545 1.06839C15.6251 1.06839 13.926 1.96293 12.9082 3.46168L12 4.79945L11.0918 3.46114C10.074 1.96292 8.37491 1.06839 6.54545 1.06839C3.55418 1.06839 1.10673 3.45202 1.09091 6.37602C1.09091 10.1666 6.67309 17.5418 12 20.82C17.3269 17.5418 22.9091 10.1672 22.9091 6.38138C22.8933 3.45202 20.4458 1.06839 17.4545 1.06839Z" fill="white"/>
</svg>
