<svg width="188" height="96" viewBox="0 0 188 96" fill="none" xmlns="http://www.w3.org/2000/svg">
<path d="M16.8864 92.1854C16.2599 92.1854 15.7017 92.0767 15.2116 91.8594C14.7216 91.6378 14.3338 91.3118 14.0483 90.8814C13.767 90.4467 13.6264 89.9055 13.6264 89.2578C13.6264 88.7124 13.7266 88.2543 13.9268 87.8835C14.1271 87.5128 14.3999 87.2145 14.745 86.9886C15.0902 86.7628 15.4822 86.5923 15.9212 86.4773C16.3643 86.3622 16.8288 86.2812 17.3146 86.2344C17.8857 86.1747 18.3459 86.1193 18.6953 86.0682C19.0447 86.0128 19.2983 85.9318 19.456 85.8253C19.6136 85.7187 19.6925 85.5611 19.6925 85.3523V85.3139C19.6925 84.9091 19.5646 84.5959 19.3089 84.3743C19.0575 84.1527 18.6996 84.0419 18.2351 84.0419C17.745 84.0419 17.3551 84.1506 17.0653 84.3679C16.7756 84.581 16.5838 84.8494 16.4901 85.1733L13.9716 84.9688C14.0994 84.3722 14.3509 83.8565 14.7259 83.4219C15.1009 82.983 15.5845 82.6463 16.1768 82.4119C16.7734 82.1733 17.4638 82.054 18.2479 82.054C18.7933 82.054 19.3153 82.1179 19.8139 82.2457C20.3168 82.3736 20.7621 82.5717 21.1499 82.8402C21.5419 83.1087 21.8509 83.4538 22.0767 83.8757C22.3026 84.2933 22.4155 84.794 22.4155 85.3778V92H19.8331V90.6385H19.7564C19.5987 90.9453 19.3878 91.2159 19.1236 91.4503C18.8594 91.6804 18.5419 91.8615 18.1712 91.9936C17.8004 92.1214 17.3722 92.1854 16.8864 92.1854ZM17.6662 90.3061C18.0668 90.3061 18.4205 90.2273 18.7273 90.0696C19.0341 89.9077 19.2749 89.6903 19.4496 89.4176C19.6243 89.1449 19.7116 88.8359 19.7116 88.4908V87.4489C19.6264 87.5043 19.5092 87.5554 19.3601 87.6023C19.2152 87.6449 19.0511 87.6854 18.8679 87.7237C18.6847 87.7578 18.5014 87.7898 18.3182 87.8196C18.1349 87.8452 17.9688 87.8686 17.8196 87.8899C17.5 87.9368 17.2209 88.0114 16.9822 88.1136C16.7436 88.2159 16.5582 88.3544 16.4261 88.5291C16.294 88.6996 16.228 88.9126 16.228 89.1683C16.228 89.5391 16.3622 89.8224 16.6307 90.0185C16.9034 90.2102 17.2486 90.3061 17.6662 90.3061ZM28.9641 92.1918C27.9585 92.1918 27.0934 91.9787 26.369 91.5526C25.6488 91.1222 25.0948 90.5256 24.707 89.7628C24.3235 89 24.1317 88.1222 24.1317 87.1293C24.1317 86.1236 24.3256 85.2415 24.7134 84.483C25.1055 83.7202 25.6616 83.1257 26.3817 82.6996C27.1019 82.2692 27.9585 82.054 28.9513 82.054C29.8079 82.054 30.5579 82.2095 31.2013 82.5206C31.8448 82.8317 32.354 83.2685 32.729 83.831C33.104 84.3935 33.3107 85.054 33.3491 85.8125H30.7795C30.707 85.3224 30.5153 84.9283 30.2042 84.63C29.8974 84.3274 29.4947 84.1761 28.9961 84.1761C28.5742 84.1761 28.2056 84.2912 27.8903 84.5213C27.5792 84.7472 27.3363 85.0774 27.1616 85.5121C26.9869 85.9467 26.8995 86.473 26.8995 87.0909C26.8995 87.7173 26.9847 88.25 27.1552 88.6889C27.3299 89.1278 27.5749 89.4624 27.8903 89.6925C28.2056 89.9226 28.5742 90.0376 28.9961 90.0376C29.3072 90.0376 29.5863 89.9737 29.8335 89.8459C30.0849 89.718 30.2915 89.5327 30.4535 89.2898C30.6197 89.0426 30.7283 88.7464 30.7795 88.4013H33.3491C33.3065 89.1513 33.1019 89.8118 32.7354 90.3828C32.3732 90.9496 31.8725 91.3928 31.2333 91.7124C30.5941 92.032 29.8377 92.1918 28.9641 92.1918ZM39.5286 92.1918C38.5229 92.1918 37.6578 91.9787 36.9334 91.5526C36.2132 91.1222 35.6593 90.5256 35.2715 89.7628C34.888 89 34.6962 88.1222 34.6962 87.1293C34.6962 86.1236 34.8901 85.2415 35.2779 84.483C35.6699 83.7202 36.226 83.1257 36.9462 82.6996C37.6664 82.2692 38.5229 82.054 39.5158 82.054C40.3723 82.054 41.1223 82.2095 41.7658 82.5206C42.4093 82.8317 42.9185 83.2685 43.2935 83.831C43.6685 84.3935 43.8752 85.054 43.9135 85.8125H41.3439C41.2715 85.3224 41.0797 84.9283 40.7686 84.63C40.4618 84.3274 40.0591 84.1761 39.5605 84.1761C39.1387 84.1761 38.7701 84.2912 38.4547 84.5213C38.1436 84.7472 37.9007 85.0774 37.726 85.5121C37.5513 85.9467 37.464 86.473 37.464 87.0909C37.464 87.7173 37.5492 88.25 37.7196 88.6889C37.8944 89.1278 38.1394 89.4624 38.4547 89.6925C38.7701 89.9226 39.1387 90.0376 39.5605 90.0376C39.8716 90.0376 40.1507 89.9737 40.3979 89.8459C40.6493 89.718 40.856 89.5327 41.0179 89.2898C41.1841 89.0426 41.2928 88.7464 41.3439 88.4013H43.9135C43.8709 89.1513 43.6664 89.8118 43.2999 90.3828C42.9377 90.9496 42.437 91.3928 41.7978 91.7124C41.1586 92.032 40.4022 92.1918 39.5286 92.1918ZM50.1314 92.1918C49.1214 92.1918 48.2521 91.9872 47.5234 91.5781C46.799 91.1648 46.2408 90.581 45.8487 89.8267C45.4567 89.0682 45.2607 88.1712 45.2607 87.1357C45.2607 86.1257 45.4567 85.2393 45.8487 84.4766C46.2408 83.7138 46.7926 83.1193 47.5043 82.6932C48.2202 82.267 49.0597 82.054 50.0227 82.054C50.6705 82.054 51.2734 82.1584 51.8317 82.3672C52.3942 82.5717 52.8842 82.8807 53.3018 83.294C53.7237 83.7074 54.0518 84.2273 54.2862 84.8537C54.5206 85.4759 54.6378 86.2045 54.6378 87.0398V87.7876H46.3473V86.1001H52.0746C52.0746 85.7081 51.9893 85.3608 51.8189 85.0582C51.6484 84.7557 51.4119 84.5192 51.1094 84.3487C50.8111 84.174 50.4638 84.0866 50.0675 84.0866C49.6541 84.0866 49.2876 84.1825 48.968 84.3743C48.6527 84.5618 48.4055 84.8153 48.2266 85.1349C48.0476 85.4503 47.956 85.8018 47.9517 86.1896V87.794C47.9517 88.2798 48.0412 88.6996 48.2202 89.0533C48.4034 89.407 48.6612 89.6797 48.9936 89.8714C49.326 90.0632 49.7202 90.1591 50.1761 90.1591C50.4787 90.1591 50.7557 90.1165 51.0071 90.0312C51.2585 89.946 51.4737 89.8182 51.6527 89.6477C51.8317 89.4773 51.968 89.2685 52.0618 89.0213L54.5803 89.1875C54.4524 89.7926 54.1903 90.321 53.794 90.7727C53.402 91.2202 52.8949 91.5696 52.2727 91.821C51.6548 92.0682 50.9411 92.1918 50.1314 92.1918ZM64.5838 84.9815L62.0909 85.1349C62.0483 84.9219 61.9567 84.7301 61.8161 84.5597C61.6754 84.3849 61.4901 84.2464 61.2599 84.1442C61.0341 84.0376 60.7635 83.9844 60.4482 83.9844C60.0263 83.9844 59.6705 84.0739 59.3807 84.2528C59.0909 84.4276 58.946 84.6619 58.946 84.956C58.946 85.1903 59.0398 85.3885 59.2273 85.5504C59.4148 85.7124 59.7365 85.8423 60.1925 85.9403L61.9695 86.2983C62.924 86.4943 63.6357 86.8097 64.1044 87.2443C64.5732 87.679 64.8075 88.25 64.8075 88.9574C64.8075 89.6009 64.6179 90.1655 64.2386 90.6513C63.8636 91.1371 63.348 91.5163 62.6918 91.7891C62.0398 92.0575 61.2876 92.1918 60.4354 92.1918C59.1357 92.1918 58.1001 91.9212 57.3288 91.38C56.5618 90.8345 56.1122 90.093 55.9801 89.1555L58.6584 89.0149C58.7393 89.4112 58.9354 89.7138 59.2464 89.9226C59.5575 90.1271 59.956 90.2294 60.4418 90.2294C60.919 90.2294 61.3026 90.1378 61.5923 89.9545C61.8864 89.767 62.0355 89.5263 62.0398 89.2322C62.0355 88.9851 61.9311 88.7827 61.7266 88.625C61.522 88.4631 61.2067 88.3395 60.7805 88.2543L59.0803 87.9155C58.1214 87.7237 57.4077 87.3913 56.9389 86.9183C56.4744 86.4453 56.2422 85.8423 56.2422 85.1094C56.2422 84.4787 56.4126 83.9354 56.7536 83.4794C57.0987 83.0234 57.5824 82.6719 58.2045 82.4247C58.831 82.1776 59.5639 82.054 60.4034 82.054C61.6435 82.054 62.6193 82.3161 63.331 82.8402C64.0469 83.3643 64.4645 84.0781 64.5838 84.9815ZM74.6912 84.9815L72.1983 85.1349C72.1557 84.9219 72.0641 84.7301 71.9235 84.5597C71.7828 84.3849 71.5975 84.2464 71.3674 84.1442C71.1415 84.0376 70.8709 83.9844 70.5556 83.9844C70.1337 83.9844 69.7779 84.0739 69.4881 84.2528C69.1983 84.4276 69.0534 84.6619 69.0534 84.956C69.0534 85.1903 69.1472 85.3885 69.3347 85.5504C69.5222 85.7124 69.8439 85.8423 70.2999 85.9403L72.0769 86.2983C73.0314 86.4943 73.7431 86.8097 74.2118 87.2443C74.6806 87.679 74.915 88.25 74.915 88.9574C74.915 89.6009 74.7253 90.1655 74.3461 90.6513C73.9711 91.1371 73.4554 91.5163 72.7992 91.7891C72.1472 92.0575 71.3951 92.1918 70.5428 92.1918C69.2431 92.1918 68.2076 91.9212 67.4363 91.38C66.6692 90.8345 66.2196 90.093 66.0875 89.1555L68.7658 89.0149C68.8468 89.4112 69.0428 89.7138 69.3539 89.9226C69.665 90.1271 70.0634 90.2294 70.5492 90.2294C71.0265 90.2294 71.41 90.1378 71.6998 89.9545C71.9938 89.767 72.1429 89.5263 72.1472 89.2322C72.1429 88.9851 72.0385 88.7827 71.834 88.625C71.6294 88.4631 71.3141 88.3395 70.888 88.2543L69.1877 87.9155C68.2289 87.7237 67.5151 87.3913 67.0463 86.9183C66.5819 86.4453 66.3496 85.8423 66.3496 85.1094C66.3496 84.4787 66.5201 83.9354 66.861 83.4794C67.2061 83.0234 67.6898 82.6719 68.312 82.4247C68.9384 82.1776 69.6713 82.054 70.5108 82.054C71.7509 82.054 72.7267 82.3161 73.4384 82.8402C74.1543 83.3643 74.5719 84.0781 74.6912 84.9815ZM80.7956 92V82.1818H83.3908V83.9141H83.5059C83.7104 83.3388 84.0513 82.8849 84.5286 82.5526C85.0059 82.2202 85.5769 82.054 86.2417 82.054C86.915 82.054 87.4881 82.2223 87.9611 82.5589C88.4341 82.8913 88.7495 83.343 88.9071 83.9141H89.0094C89.2097 83.3516 89.5719 82.902 90.0961 82.5653C90.6245 82.2244 91.2488 82.054 91.9689 82.054C92.8851 82.054 93.6287 82.3459 94.1998 82.9297C94.775 83.5092 95.0627 84.3317 95.0627 85.397V92H92.3461V85.9339C92.3461 85.3885 92.2012 84.9794 91.9114 84.7067C91.6216 84.4339 91.2594 84.2976 90.8248 84.2976C90.3304 84.2976 89.9448 84.4553 89.6678 84.7706C89.3908 85.0817 89.2523 85.4929 89.2523 86.0043V92H86.6124V85.8764C86.6124 85.3949 86.4739 85.0114 86.1969 84.7259C85.9242 84.4403 85.5641 84.2976 85.1167 84.2976C84.8141 84.2976 84.5414 84.3743 84.2985 84.5277C84.0598 84.6768 83.8702 84.8878 83.7296 85.1605C83.589 85.429 83.5186 85.7443 83.5186 86.1065V92H80.7956ZM100.013 92.1854C99.3869 92.1854 98.8287 92.0767 98.3386 91.8594C97.8485 91.6378 97.4608 91.3118 97.1752 90.8814C96.894 90.4467 96.7534 89.9055 96.7534 89.2578C96.7534 88.7124 96.8535 88.2543 97.0538 87.8835C97.2541 87.5128 97.5268 87.2145 97.872 86.9886C98.2172 86.7628 98.6092 86.5923 99.0481 86.4773C99.4913 86.3622 99.9558 86.2812 100.442 86.2344C101.013 86.1747 101.473 86.1193 101.822 86.0682C102.172 86.0128 102.425 85.9318 102.583 85.8253C102.741 85.7187 102.819 85.5611 102.819 85.3523V85.3139C102.819 84.9091 102.692 84.5959 102.436 84.3743C102.184 84.1527 101.827 84.0419 101.362 84.0419C100.872 84.0419 100.482 84.1506 100.192 84.3679C99.9025 84.581 99.7108 84.8494 99.617 85.1733L97.0985 84.9688C97.2264 84.3722 97.4778 83.8565 97.8528 83.4219C98.2278 82.983 98.7115 82.6463 99.3038 82.4119C99.9004 82.1733 100.591 82.054 101.375 82.054C101.92 82.054 102.442 82.1179 102.941 82.2457C103.444 82.3736 103.889 82.5717 104.277 82.8402C104.669 83.1087 104.978 83.4538 105.204 83.8757C105.43 84.2933 105.542 84.794 105.542 85.3778V92H102.96V90.6385H102.883C102.726 90.9453 102.515 91.2159 102.251 91.4503C101.986 91.6804 101.669 91.8615 101.298 91.9936C100.927 92.1214 100.499 92.1854 100.013 92.1854ZM100.793 90.3061C101.194 90.3061 101.547 90.2273 101.854 90.0696C102.161 89.9077 102.402 89.6903 102.577 89.4176C102.751 89.1449 102.839 88.8359 102.839 88.4908V87.4489C102.753 87.5043 102.636 87.5554 102.487 87.6023C102.342 87.6449 102.178 87.6854 101.995 87.7237C101.812 87.7578 101.628 87.7898 101.445 87.8196C101.262 87.8452 101.096 87.8686 100.947 87.8899C100.627 87.9368 100.348 88.0114 100.109 88.1136C99.8706 88.2159 99.6852 88.3544 99.5531 88.5291C99.421 88.6996 99.3549 88.9126 99.3549 89.1683C99.3549 89.5391 99.4892 89.8224 99.7576 90.0185C100.03 90.2102 100.376 90.3061 100.793 90.3061ZM111.273 92.1598C110.527 92.1598 109.852 91.968 109.247 91.5845C108.646 91.1967 108.169 90.6278 107.815 89.8778C107.465 89.1236 107.291 88.1989 107.291 87.1037C107.291 85.9787 107.472 85.0433 107.834 84.2976C108.196 83.5476 108.678 82.9872 109.279 82.6165C109.884 82.2415 110.546 82.054 111.267 82.054C111.816 82.054 112.274 82.1477 112.641 82.3352C113.012 82.5185 113.31 82.7486 113.536 83.0256C113.766 83.2983 113.941 83.5668 114.06 83.831H114.143V78.9091H116.86V92H114.175V90.4276H114.06C113.932 90.7003 113.751 90.9709 113.517 91.2393C113.286 91.5036 112.986 91.723 112.615 91.8977C112.249 92.0724 111.801 92.1598 111.273 92.1598ZM112.136 89.9929C112.575 89.9929 112.945 89.8736 113.248 89.6349C113.555 89.392 113.789 89.0533 113.951 88.6186C114.117 88.1839 114.2 87.6747 114.2 87.0909C114.2 86.5071 114.119 86 113.958 85.5696C113.796 85.1392 113.561 84.8068 113.254 84.5724C112.948 84.3381 112.575 84.2209 112.136 84.2209C111.688 84.2209 111.311 84.3423 111.004 84.5852C110.698 84.8281 110.465 85.1648 110.308 85.5952C110.15 86.0256 110.071 86.5241 110.071 87.0909C110.071 87.6619 110.15 88.1669 110.308 88.6058C110.47 89.0405 110.702 89.3814 111.004 89.6286C111.311 89.8714 111.688 89.9929 112.136 89.9929ZM123.573 92.1918C122.563 92.1918 121.694 91.9872 120.965 91.5781C120.24 91.1648 119.682 90.581 119.29 89.8267C118.898 89.0682 118.702 88.1712 118.702 87.1357C118.702 86.1257 118.898 85.2393 119.29 84.4766C119.682 83.7138 120.234 83.1193 120.946 82.6932C121.662 82.267 122.501 82.054 123.464 82.054C124.112 82.054 124.715 82.1584 125.273 82.3672C125.836 82.5717 126.326 82.8807 126.743 83.294C127.165 83.7074 127.493 84.2273 127.728 84.8537C127.962 85.4759 128.079 86.2045 128.079 87.0398V87.7876H119.789V86.1001H125.516C125.516 85.7081 125.431 85.3608 125.26 85.0582C125.09 84.7557 124.853 84.5192 124.551 84.3487C124.252 84.174 123.905 84.0866 123.509 84.0866C123.096 84.0866 122.729 84.1825 122.409 84.3743C122.094 84.5618 121.847 84.8153 121.668 85.1349C121.489 85.4503 121.397 85.8018 121.393 86.1896V87.794C121.393 88.2798 121.483 88.6996 121.662 89.0533C121.845 89.407 122.103 89.6797 122.435 89.8714C122.767 90.0632 123.162 90.1591 123.618 90.1591C123.92 90.1591 124.197 90.1165 124.449 90.0312C124.7 89.946 124.915 89.8182 125.094 89.6477C125.273 89.4773 125.409 89.2685 125.503 89.0213L128.022 89.1875C127.894 89.7926 127.632 90.321 127.235 90.7727C126.843 91.2202 126.336 91.5696 125.714 91.821C125.096 92.0682 124.382 92.1918 123.573 92.1918ZM138.497 92.1918C137.487 92.1918 136.617 91.9872 135.889 91.5781C135.164 91.1648 134.606 90.581 134.214 89.8267C133.822 89.0682 133.626 88.1712 133.626 87.1357C133.626 86.1257 133.822 85.2393 134.214 84.4766C134.606 83.7138 135.158 83.1193 135.869 82.6932C136.585 82.267 137.425 82.054 138.388 82.054C139.036 82.054 139.639 82.1584 140.197 82.3672C140.759 82.5717 141.249 82.8807 141.667 83.294C142.089 83.7074 142.417 84.2273 142.651 84.8537C142.886 85.4759 143.003 86.2045 143.003 87.0398V87.7876H134.713V86.1001H140.44C140.44 85.7081 140.355 85.3608 140.184 85.0582C140.014 84.7557 139.777 84.5192 139.475 84.3487C139.176 84.174 138.829 84.0866 138.433 84.0866C138.019 84.0866 137.653 84.1825 137.333 84.3743C137.018 84.5618 136.771 84.8153 136.592 85.1349C136.413 85.4503 136.321 85.8018 136.317 86.1896V87.794C136.317 88.2798 136.406 88.6996 136.585 89.0533C136.769 89.407 137.026 89.6797 137.359 89.8714C137.691 90.0632 138.085 90.1591 138.541 90.1591C138.844 90.1591 139.121 90.1165 139.372 90.0312C139.624 89.946 139.839 89.8182 140.018 89.6477C140.197 89.4773 140.333 89.2685 140.427 89.0213L142.945 89.1875C142.818 89.7926 142.556 90.321 142.159 90.7727C141.767 91.2202 141.26 91.5696 140.638 91.821C140.02 92.0682 139.306 92.1918 138.497 92.1918ZM147.58 92.1854C146.953 92.1854 146.395 92.0767 145.905 91.8594C145.415 91.6378 145.027 91.3118 144.742 90.8814C144.46 90.4467 144.32 89.9055 144.32 89.2578C144.32 88.7124 144.42 88.2543 144.62 87.8835C144.82 87.5128 145.093 87.2145 145.438 86.9886C145.784 86.7628 146.176 86.5923 146.615 86.4773C147.058 86.3622 147.522 86.2812 148.008 86.2344C148.579 86.1747 149.039 86.1193 149.389 86.0682C149.738 86.0128 149.992 85.9318 150.149 85.8253C150.307 85.7187 150.386 85.5611 150.386 85.3523V85.3139C150.386 84.9091 150.258 84.5959 150.002 84.3743C149.751 84.1527 149.393 84.0419 148.928 84.0419C148.438 84.0419 148.048 84.1506 147.759 84.3679C147.469 84.581 147.277 84.8494 147.183 85.1733L144.665 84.9688C144.793 84.3722 145.044 83.8565 145.419 83.4219C145.794 82.983 146.278 82.6463 146.87 82.4119C147.467 82.1733 148.157 82.054 148.941 82.054C149.487 82.054 150.009 82.1179 150.507 82.2457C151.01 82.3736 151.455 82.5717 151.843 82.8402C152.235 83.1087 152.544 83.4538 152.77 83.8757C152.996 84.2933 153.109 84.794 153.109 85.3778V92H150.526V90.6385H150.45C150.292 90.9453 150.081 91.2159 149.817 91.4503C149.553 91.6804 149.235 91.8615 148.865 91.9936C148.494 92.1214 148.066 92.1854 147.58 92.1854ZM148.36 90.3061C148.76 90.3061 149.114 90.2273 149.421 90.0696C149.727 89.9077 149.968 89.6903 150.143 89.4176C150.318 89.1449 150.405 88.8359 150.405 88.4908V87.4489C150.32 87.5043 150.203 87.5554 150.053 87.6023C149.909 87.6449 149.744 87.6854 149.561 87.7237C149.378 87.7578 149.195 87.7898 149.012 87.8196C148.828 87.8452 148.662 87.8686 148.513 87.8899C148.193 87.9368 147.914 88.0114 147.676 88.1136C147.437 88.2159 147.252 88.3544 147.119 88.5291C146.987 88.6996 146.921 88.9126 146.921 89.1683C146.921 89.5391 147.056 89.8224 147.324 90.0185C147.597 90.2102 147.942 90.3061 148.36 90.3061ZM163.39 84.9815L160.898 85.1349C160.855 84.9219 160.763 84.7301 160.623 84.5597C160.482 84.3849 160.297 84.2464 160.067 84.1442C159.841 84.0376 159.57 83.9844 159.255 83.9844C158.833 83.9844 158.477 84.0739 158.187 84.2528C157.898 84.4276 157.753 84.6619 157.753 84.956C157.753 85.1903 157.846 85.3885 158.034 85.5504C158.221 85.7124 158.543 85.8423 158.999 85.9403L160.776 86.2983C161.731 86.4943 162.442 86.8097 162.911 87.2443C163.38 87.679 163.614 88.25 163.614 88.9574C163.614 89.6009 163.425 90.1655 163.045 90.6513C162.67 91.1371 162.155 91.5163 161.498 91.7891C160.846 92.0575 160.094 92.1918 159.242 92.1918C157.942 92.1918 156.907 91.9212 156.135 91.38C155.368 90.8345 154.919 90.093 154.787 89.1555L157.465 89.0149C157.546 89.4112 157.742 89.7138 158.053 89.9226C158.364 90.1271 158.763 90.2294 159.248 90.2294C159.726 90.2294 160.109 90.1378 160.399 89.9545C160.693 89.767 160.842 89.5263 160.846 89.2322C160.842 88.9851 160.738 88.7827 160.533 88.625C160.329 88.4631 160.013 88.3395 159.587 88.2543L157.887 87.9155C156.928 87.7237 156.214 87.3913 155.746 86.9183C155.281 86.4453 155.049 85.8423 155.049 85.1094C155.049 84.4787 155.219 83.9354 155.56 83.4794C155.905 83.0234 156.389 82.6719 157.011 82.4247C157.638 82.1776 158.371 82.054 159.21 82.054C160.45 82.054 161.426 82.3161 162.138 82.8402C162.854 83.3643 163.271 84.0781 163.39 84.9815ZM167.01 95.6818C166.665 95.6818 166.341 95.6541 166.038 95.5987C165.74 95.5476 165.493 95.4815 165.297 95.4006L165.911 93.3679C166.23 93.4659 166.518 93.5192 166.773 93.5277C167.033 93.5362 167.257 93.4766 167.445 93.3487C167.636 93.2209 167.792 93.0036 167.911 92.6967L168.071 92.2812L164.549 82.1818H167.413L169.445 89.392H169.548L171.599 82.1818H174.482L170.666 93.0611C170.483 93.5895 170.234 94.0497 169.918 94.4418C169.607 94.8381 169.213 95.1428 168.736 95.3558C168.259 95.5732 167.683 95.6818 167.01 95.6818Z" fill="white"/>
<path d="M133.739 70.4091C131.966 70.4091 130.411 69.9872 129.072 69.1435C127.743 68.2997 126.703 67.1193 125.953 65.6023C125.212 64.0852 124.841 62.3125 124.841 60.2841C124.841 58.2386 125.212 56.4531 125.953 54.9276C126.703 53.402 127.743 52.2173 129.072 51.3736C130.411 50.5298 131.966 50.108 133.739 50.108C135.511 50.108 137.063 50.5298 138.392 51.3736C139.73 52.2173 140.77 53.402 141.511 54.9276C142.261 56.4531 142.636 58.2386 142.636 60.2841C142.636 62.3125 142.261 64.0852 141.511 65.6023C140.77 67.1193 139.73 68.2997 138.392 69.1435C137.063 69.9872 135.511 70.4091 133.739 70.4091ZM133.739 67.6989C135.085 67.6989 136.193 67.3537 137.063 66.6634C137.932 65.973 138.575 65.0653 138.993 63.9403C139.411 62.8153 139.619 61.5966 139.619 60.2841C139.619 58.9716 139.411 57.7486 138.993 56.6151C138.575 55.4815 137.932 54.5653 137.063 53.8665C136.193 53.1676 135.085 52.8182 133.739 52.8182C132.392 52.8182 131.284 53.1676 130.415 53.8665C129.545 54.5653 128.902 55.4815 128.484 56.6151C128.067 57.7486 127.858 58.9716 127.858 60.2841C127.858 61.5966 128.067 62.8153 128.484 63.9403C128.902 65.0653 129.545 65.973 130.415 66.6634C131.284 67.3537 132.392 67.6989 133.739 67.6989ZM147.242 70V50.3636H150.259V70H147.242ZM148.776 47.0909C148.188 47.0909 147.681 46.8906 147.255 46.4901C146.837 46.0895 146.628 45.608 146.628 45.0455C146.628 44.483 146.837 44.0014 147.255 43.6009C147.681 43.2003 148.188 43 148.776 43C149.364 43 149.867 43.2003 150.284 43.6009C150.711 44.0014 150.924 44.483 150.924 45.0455C150.924 45.608 150.711 46.0895 150.284 46.4901C149.867 46.8906 149.364 47.0909 148.776 47.0909ZM158.802 58.1875V70H155.785V50.3636H158.7V53.4318H158.955C159.415 52.4347 160.114 51.6335 161.052 51.0284C161.989 50.4148 163.2 50.108 164.683 50.108C166.012 50.108 167.175 50.3807 168.173 50.9261C169.17 51.4631 169.945 52.2812 170.499 53.3807C171.053 54.4716 171.33 55.8523 171.33 57.5227V70H168.313V57.7273C168.313 56.1847 167.913 54.983 167.112 54.1222C166.31 53.2528 165.211 52.8182 163.813 52.8182C162.85 52.8182 161.989 53.027 161.231 53.4446C160.481 53.8622 159.889 54.4716 159.454 55.2727C159.019 56.0739 158.802 57.0455 158.802 58.1875ZM185.383 50.3636V52.9205H175.207V50.3636H185.383ZM178.173 45.6591H181.19V64.375C181.19 65.2273 181.314 65.8665 181.561 66.2926C181.816 66.7102 182.14 66.9915 182.532 67.1364C182.933 67.2727 183.355 67.3409 183.798 67.3409C184.13 67.3409 184.403 67.3239 184.616 67.2898C184.829 67.2472 185 67.2131 185.128 67.1875L185.741 69.8977C185.537 69.9744 185.251 70.0511 184.885 70.1278C184.518 70.2131 184.054 70.2557 183.491 70.2557C182.639 70.2557 181.804 70.0724 180.985 69.706C180.176 69.3395 179.503 68.7812 178.966 68.0312C178.437 67.2812 178.173 66.3352 178.173 65.1932V45.6591Z" fill="#6D1616"/>
<path d="M123 43H113V71H123V43Z" fill="#6D1616"/>
<path d="M120.296 16.4232L102.588 16.5107C101.759 16.5148 100.966 16.8479 100.383 17.4369C99.7999 18.0258 99.4746 18.8223 99.4787 19.6511C99.4828 20.4799 99.816 21.2731 100.405 21.8562C100.994 22.4394 101.79 22.7647 102.619 22.7606L118.244 22.6834M117.202 22.6885L113.036 22.7091C112.207 22.7132 111.414 23.0464 110.83 23.6353C110.247 24.2243 109.922 25.0207 109.926 25.8495C109.93 26.6783 110.263 27.4715 110.852 28.0547C111.441 28.6378 112.238 28.9631 113.067 28.9591L118.275 28.9333M115.15 28.9488C114.321 28.9529 113.528 29.286 112.945 29.875C112.362 30.4639 112.036 31.2604 112.04 32.0892C112.044 32.918 112.378 33.7112 112.967 34.2943C113.555 34.8775 114.352 35.2028 115.181 35.1987L118.306 35.1832" fill="#6D1616"/>
<path d="M117.264 35.1884C116.435 35.1925 115.642 35.5256 115.059 36.1146C114.476 36.7035 114.15 37.5 114.155 38.3288C114.159 39.1576 114.492 39.9508 115.081 40.5339C115.67 41.1171 116.466 41.4424 117.295 41.4383L126.67 41.392C129.985 41.3756 133.158 40.0429 135.49 37.6872C137.823 35.3314 139.124 32.1455 139.108 28.8304L139.087 24.6637L139.089 25.0971C139.08 23.027 138.556 20.9917 137.565 19.1741C136.574 17.3564 135.147 15.8133 133.413 14.6833L132.786 14.2781C131.785 13.633 127.796 11.3708 120.819 7.49131C120.108 7.09576 119.27 6.9933 118.484 7.20572C117.699 7.41815 117.027 7.9287 116.612 8.62878C115.703 10.1625 115.952 12.1196 117.219 13.3758L120.296 16.4232" fill="#6D1616"/>
<path d="M43.1932 41.8182H46.3636V60.5341C46.3636 62.2045 46.0568 63.6236 45.4432 64.7912C44.8295 65.9588 43.9645 66.8452 42.848 67.4503C41.7315 68.0554 40.4148 68.358 38.8977 68.358C37.4659 68.358 36.1918 68.098 35.0753 67.5781C33.9588 67.0497 33.081 66.2997 32.4418 65.3281C31.8026 64.3565 31.483 63.2017 31.483 61.8636H34.6023C34.6023 62.6051 34.7855 63.2528 35.152 63.8068C35.527 64.3523 36.0384 64.7784 36.6861 65.0852C37.3338 65.392 38.071 65.5455 38.8977 65.5455C39.8097 65.5455 40.5852 65.3537 41.2244 64.9702C41.8636 64.5866 42.3494 64.0241 42.6818 63.2827C43.0227 62.5327 43.1932 61.6165 43.1932 60.5341V41.8182ZM64.6832 59.9716V48.3636H67.7003V68H64.6832V64.6761H64.4787C64.0185 65.6733 63.3026 66.5213 62.331 67.2202C61.3594 67.9105 60.1321 68.2557 58.6491 68.2557C57.4219 68.2557 56.331 67.9872 55.3764 67.4503C54.4219 66.9048 53.6719 66.0866 53.1264 64.9957C52.581 63.8963 52.3082 62.5114 52.3082 60.8409V48.3636H55.3253V60.6364C55.3253 62.0682 55.7259 63.2102 56.527 64.0625C57.3366 64.9148 58.3679 65.3409 59.6207 65.3409C60.3707 65.3409 61.1335 65.1491 61.9091 64.7656C62.6932 64.3821 63.3494 63.794 63.8778 63.0014C64.4148 62.2088 64.6832 61.1989 64.6832 59.9716ZM87.1353 52.7614L84.4251 53.5284C84.2546 53.0767 84.0032 52.6378 83.6708 52.2116C83.3469 51.777 82.9038 51.419 82.3413 51.1378C81.7788 50.8565 81.0586 50.7159 80.1808 50.7159C78.979 50.7159 77.9776 50.9929 77.1765 51.5469C76.3839 52.0923 75.9876 52.7869 75.9876 53.6307C75.9876 54.3807 76.2603 54.973 76.8058 55.4077C77.3512 55.8423 78.2035 56.2045 79.3626 56.4943L82.2773 57.2102C84.033 57.6364 85.3413 58.2884 86.2021 59.1662C87.0629 60.0355 87.4933 61.1562 87.4933 62.5284C87.4933 63.6534 87.1694 64.6591 86.5217 65.5455C85.8825 66.4318 84.9876 67.1307 83.837 67.642C82.6864 68.1534 81.3484 68.4091 79.8228 68.4091C77.82 68.4091 76.1623 67.9744 74.8498 67.1051C73.5373 66.2358 72.7063 64.9659 72.3569 63.2955L75.2205 62.5795C75.4933 63.6364 76.0089 64.429 76.7674 64.9574C77.5344 65.4858 78.5359 65.75 79.7717 65.75C81.1779 65.75 82.2944 65.4517 83.1211 64.8551C83.9563 64.25 84.3739 63.5256 84.3739 62.6818C84.3739 62 84.1353 61.429 83.658 60.9688C83.1808 60.5 82.4478 60.1506 81.4592 59.9205L78.1864 59.1534C76.3881 58.7273 75.0671 58.0668 74.2234 57.1719C73.3881 56.2685 72.9705 55.1392 72.9705 53.7841C72.9705 52.6761 73.2816 51.696 73.9038 50.8438C74.5344 49.9915 75.391 49.3224 76.4734 48.8366C77.5643 48.3509 78.8001 48.108 80.1808 48.108C82.1239 48.108 83.6495 48.5341 84.7575 49.3864C85.8739 50.2386 86.6665 51.3636 87.1353 52.7614ZM100.575 48.3636V50.9205H90.3984V48.3636H100.575ZM93.3643 43.6591H96.3814V62.375C96.3814 63.2273 96.505 63.8665 96.7521 64.2926C97.0078 64.7102 97.3317 64.9915 97.7237 65.1364C98.1243 65.2727 98.5462 65.3409 98.9893 65.3409C99.3217 65.3409 99.5945 65.3239 99.8075 65.2898C100.021 65.2472 100.191 65.2131 100.319 65.1875L100.933 67.8977C100.728 67.9744 100.442 68.0511 100.076 68.1278C99.7095 68.2131 99.245 68.2557 98.6825 68.2557C97.8303 68.2557 96.995 68.0724 96.1768 67.706C95.3672 67.3395 94.6939 66.7812 94.157 66.0312C93.6286 65.2812 93.3643 64.3352 93.3643 63.1932V43.6591Z" fill="white"/>
<path d="M8.22439 39.1354C8.70863 38.6792 9.40583 38.4167 10.1411 38.4167H45.176L45.6704 35.9917C45.8732 34.9875 46.9304 34.25 48.1702 34.25H53.8746C55.2766 34.25 56.4098 35.1813 56.4098 36.3333C56.4098 37.4854 55.2766 38.4167 53.8746 38.4167H50.3176L45.602 61.675C45.5817 61.7687 45.5234 61.8458 45.4879 61.9333C45.4473 62.0437 45.4143 62.1479 45.351 62.2479C45.2698 62.3854 45.1608 62.5021 45.0467 62.6208C44.9681 62.7021 44.8972 62.7833 44.8059 62.8542C44.6588 62.9667 44.489 63.0458 44.3166 63.125C44.2202 63.1688 44.1366 63.2271 44.0326 63.2604C43.7385 63.3583 43.4292 63.4167 43.1022 63.4167H15.2116C13.8096 63.4167 12.6764 62.4854 12.6764 61.3333C12.6764 60.1812 13.8096 59.25 15.2116 59.25H40.9523L41.3731 57.1667H12.6764C11.4138 57.1667 10.3439 56.4042 10.1664 55.3792L7.63114 40.7958C7.52719 40.1958 7.74523 39.5896 8.22439 39.1354ZM13.0643 42.5833L13.7868 46.75H22.8175V42.5833H13.0643ZM25.3527 42.5833V46.75H32.9586V42.5833H25.3527ZM25.3527 48.8333V53H32.9586V48.8333H25.3527ZM35.4938 42.5833V46.75H43.0996C43.234 46.75 43.3557 46.7812 43.4749 46.8125L44.3318 42.5833H35.4938ZM43.0641 48.8333H35.4938V53H42.2199L43.0641 48.8333ZM22.8175 53V48.8333H14.1519L14.8744 53H22.8175Z" fill="white"/>
<path d="M39.2967 71.75C37.1964 71.75 35.4938 70.3509 35.4938 68.625C35.4938 66.8991 37.1964 65.5 39.2967 65.5C41.397 65.5 43.0996 66.8991 43.0996 68.625C43.0996 70.3509 41.397 71.75 39.2967 71.75Z" fill="white"/>
<path d="M16.4793 71.75C14.379 71.75 12.6764 70.3509 12.6764 68.625C12.6764 66.8991 14.379 65.5 16.4793 65.5C18.5796 65.5 20.2822 66.8991 20.2822 68.625C20.2822 70.3509 18.5796 71.75 16.4793 71.75Z" fill="white"/>
</svg>
