<svg width="24" height="24" viewBox="0 0 24 24" fill="none" xmlns="http://www.w3.org/2000/svg">
<path d="M24 22.5438L16.9188 15.4562C18.2188 13.8312 19 11.7625 19 9.5125C19 4.25625 14.7438 0 9.5 0C4.25 0 0 4.2625 0 9.5125C0 14.7625 4.25625 19.025 9.5 19.025C11.7625 19.025 13.8375 18.2313 15.4687 16.9125L22.5438 24L24 22.5438ZM3.4875 15.5375C1.88125 13.9313 1 11.7938 1 9.51875C1 7.24375 1.8875 5.10625 3.4875 3.5C5.0875 1.89375 7.23125 1 9.5 1C11.7687 1 13.9062 1.8875 15.5125 3.49375C17.1187 5.1 18 7.2375 18 9.5125C18 11.7875 17.1125 13.925 15.5125 15.5312C13.9062 17.1375 11.7687 18.025 9.5 18.025C7.23125 18.0312 5.09375 17.1438 3.4875 15.5375Z" fill="white"/>
</svg>
