<svg width="738" height="400" viewBox="0 0 738 400" fill="none" xmlns="http://www.w3.org/2000/svg">
<rect width="737.19" height="400" fill="#D9D9D9"/>
<rect x="17.712" y="51.7413" width="328.827" height="38.4575" fill="#EEEEEE"/>
<rect x="346.539" y="52.5425" width="52.3659" height="38.4575" fill="#6D1616"/>
<path d="M379.653 80.5844L375.032 75.7772M365.791 71.7712C365.791 72.5077 365.93 73.237 366.201 73.9175C366.472 74.5979 366.869 75.2162 367.37 75.7369C367.87 76.2577 368.465 76.6708 369.119 76.9527C369.773 77.2345 370.474 77.3796 371.182 77.3796C371.89 77.3796 372.59 77.2345 373.245 76.9527C373.899 76.6708 374.493 76.2577 374.993 75.7369C375.494 75.2162 375.891 74.5979 376.162 73.9175C376.433 73.237 376.572 72.5077 376.572 71.7712C376.572 71.0347 376.433 70.3054 376.162 69.625C375.891 68.9445 375.494 68.3263 374.993 67.8055C374.493 67.2847 373.899 66.8716 373.245 66.5898C372.59 66.3079 371.89 66.1628 371.182 66.1628C370.474 66.1628 369.773 66.3079 369.119 66.5898C368.465 66.8716 367.87 67.2847 367.37 67.8055C366.869 68.3263 366.472 68.9445 366.201 69.625C365.93 70.3054 365.791 71.0347 365.791 71.7712Z" stroke="white" stroke-width="2" stroke-linecap="round" stroke-linejoin="round"/>
<path d="M47.7955 63.5455H49.9091V76.0227C49.9091 77.1364 49.7045 78.0824 49.2955 78.8608C48.8864 79.6392 48.3097 80.2301 47.5653 80.6335C46.821 81.0369 45.9432 81.2386 44.9318 81.2386C43.9773 81.2386 43.1278 81.0653 42.3835 80.7188C41.6392 80.3665 41.054 79.8665 40.6278 79.2188C40.2017 78.571 39.9886 77.8011 39.9886 76.9091H42.0682C42.0682 77.4034 42.1903 77.8352 42.4347 78.2045C42.6847 78.5682 43.0256 78.8523 43.4574 79.0568C43.8892 79.2614 44.3807 79.3636 44.9318 79.3636C45.5398 79.3636 46.0568 79.2358 46.483 78.9801C46.9091 78.7244 47.233 78.3494 47.4545 77.8551C47.6818 77.3551 47.7955 76.7443 47.7955 76.0227V63.5455ZM54.1449 81V63.5455H60.0426C61.4119 63.5455 62.5313 63.7926 63.4006 64.2869C64.2756 64.7756 64.9233 65.4375 65.3438 66.2727C65.7642 67.108 65.9744 68.0398 65.9744 69.0682C65.9744 70.0966 65.7642 71.0312 65.3438 71.8722C64.929 72.7131 64.2869 73.3835 63.4176 73.8835C62.5483 74.3778 61.4347 74.625 60.0767 74.625H55.8494V72.75H60.0085C60.946 72.75 61.6989 72.5881 62.267 72.2642C62.8352 71.9403 63.2472 71.5028 63.5028 70.9517C63.7642 70.3949 63.8949 69.767 63.8949 69.0682C63.8949 68.3693 63.7642 67.7443 63.5028 67.1932C63.2472 66.642 62.8324 66.2102 62.2585 65.8977C61.6847 65.5795 60.9233 65.4205 59.9744 65.4205H56.2585V81H54.1449ZM76.1293 81V63.5455H86.6634V65.4205H78.2429V71.3182H86.1179V73.1932H78.2429V79.125H86.7997V81H76.1293ZM99.473 70.8409L97.6662 71.3523C97.5526 71.0511 97.3849 70.7585 97.1634 70.4744C96.9474 70.1847 96.652 69.946 96.277 69.7585C95.902 69.571 95.4219 69.4773 94.8366 69.4773C94.0355 69.4773 93.3679 69.6619 92.8338 70.0312C92.3054 70.3949 92.0412 70.858 92.0412 71.4205C92.0412 71.9205 92.223 72.3153 92.5866 72.6051C92.9503 72.8949 93.5185 73.1364 94.2912 73.3295L96.2344 73.8068C97.4048 74.0909 98.277 74.5256 98.8509 75.1108C99.4247 75.6903 99.7116 76.4375 99.7116 77.3523C99.7116 78.1023 99.4957 78.7727 99.0639 79.3636C98.6378 79.9545 98.0412 80.4205 97.2741 80.7614C96.5071 81.1023 95.6151 81.2727 94.598 81.2727C93.2628 81.2727 92.1577 80.983 91.2827 80.4034C90.4077 79.8239 89.8537 78.9773 89.6207 77.8636L91.5298 77.3864C91.7116 78.0909 92.0554 78.6193 92.5611 78.9716C93.0724 79.3239 93.7401 79.5 94.5639 79.5C95.5014 79.5 96.2457 79.3011 96.7969 78.9034C97.3537 78.5 97.6321 78.017 97.6321 77.4545C97.6321 77 97.473 76.6193 97.1548 76.3125C96.8366 76 96.348 75.767 95.6889 75.6136L93.5071 75.1023C92.3082 74.8182 91.4276 74.3778 90.8651 73.7812C90.3082 73.179 90.0298 72.4261 90.0298 71.5227C90.0298 70.7841 90.2372 70.1307 90.652 69.5625C91.0724 68.9943 91.6435 68.5483 92.3651 68.2244C93.0923 67.9006 93.9162 67.7386 94.8366 67.7386C96.1321 67.7386 97.1491 68.0227 97.8878 68.5909C98.6321 69.1591 99.1605 69.9091 99.473 70.8409ZM108.433 67.9091V69.6136H101.648V67.9091H108.433ZM103.626 64.7727H105.637V77.25C105.637 77.8182 105.719 78.2443 105.884 78.5284C106.055 78.8068 106.271 78.9943 106.532 79.0909C106.799 79.1818 107.08 79.2273 107.376 79.2273C107.597 79.2273 107.779 79.2159 107.921 79.1932C108.063 79.1648 108.177 79.142 108.262 79.125L108.671 80.9318C108.535 80.983 108.344 81.0341 108.1 81.0852C107.856 81.142 107.546 81.1705 107.171 81.1705C106.603 81.1705 106.046 81.0483 105.501 80.804C104.961 80.5597 104.512 80.1875 104.154 79.6875C103.802 79.1875 103.626 78.5568 103.626 77.7955V64.7727ZM115.31 81.3068C114.481 81.3068 113.728 81.1506 113.052 80.8381C112.376 80.5199 111.839 80.0625 111.441 79.4659C111.043 78.8636 110.844 78.1364 110.844 77.2841C110.844 76.5341 110.992 75.9261 111.288 75.4602C111.583 74.9886 111.978 74.6193 112.472 74.3523C112.967 74.0852 113.512 73.8864 114.109 73.7557C114.711 73.6193 115.316 73.5114 115.924 73.4318C116.719 73.3295 117.364 73.2528 117.859 73.2017C118.359 73.1449 118.722 73.0511 118.95 72.9205C119.183 72.7898 119.299 72.5625 119.299 72.2386V72.1705C119.299 71.3295 119.069 70.6761 118.609 70.2102C118.154 69.7443 117.464 69.5114 116.538 69.5114C115.577 69.5114 114.825 69.7216 114.279 70.142C113.734 70.5625 113.35 71.0114 113.129 71.4886L111.219 70.8068C111.56 70.0114 112.015 69.392 112.583 68.9489C113.157 68.5 113.782 68.1875 114.458 68.0114C115.14 67.8295 115.81 67.7386 116.469 67.7386C116.89 67.7386 117.373 67.7898 117.918 67.892C118.469 67.9886 119.001 68.1903 119.512 68.4972C120.029 68.804 120.458 69.267 120.799 69.8864C121.14 70.5057 121.31 71.3352 121.31 72.375V81H119.299V79.2273H119.197C119.06 79.5114 118.833 79.8153 118.515 80.1392C118.197 80.4631 117.773 80.7386 117.245 80.9659C116.717 81.1932 116.072 81.3068 115.31 81.3068ZM115.617 79.5C116.413 79.5 117.083 79.3438 117.629 79.0312C118.18 78.7188 118.594 78.3153 118.873 77.821C119.157 77.3267 119.299 76.8068 119.299 76.2614V74.4205C119.214 74.5227 119.026 74.6165 118.737 74.7017C118.452 74.7812 118.123 74.8523 117.748 74.9148C117.379 74.9716 117.018 75.0227 116.665 75.0682C116.319 75.108 116.038 75.142 115.822 75.1705C115.299 75.2386 114.81 75.3494 114.356 75.5028C113.907 75.6506 113.543 75.875 113.265 76.1761C112.992 76.4716 112.856 76.875 112.856 77.3864C112.856 78.0852 113.114 78.6136 113.631 78.9716C114.154 79.3239 114.816 79.5 115.617 79.5ZM130.675 67.9091V69.6136H123.891V67.9091H130.675ZM125.868 64.7727H127.879V77.25C127.879 77.8182 127.962 78.2443 128.126 78.5284C128.297 78.8068 128.513 78.9943 128.774 79.0909C129.041 79.1818 129.322 79.2273 129.618 79.2273C129.839 79.2273 130.021 79.2159 130.163 79.1932C130.305 79.1648 130.419 79.142 130.504 79.125L130.913 80.9318C130.777 80.983 130.587 81.0341 130.342 81.0852C130.098 81.142 129.788 81.1705 129.413 81.1705C128.845 81.1705 128.288 81.0483 127.743 80.804C127.203 80.5597 126.754 80.1875 126.396 79.6875C126.044 79.1875 125.868 78.5568 125.868 77.7955V64.7727ZM139.048 81.2727C137.787 81.2727 136.699 80.9943 135.784 80.4375C134.875 79.875 134.173 79.0909 133.679 78.0852C133.19 77.0739 132.946 75.8977 132.946 74.5568C132.946 73.2159 133.19 72.0341 133.679 71.0114C134.173 69.983 134.861 69.1818 135.741 68.608C136.628 68.0284 137.662 67.7386 138.844 67.7386C139.526 67.7386 140.199 67.8523 140.864 68.0795C141.528 68.3068 142.134 68.6761 142.679 69.1875C143.224 69.6932 143.659 70.3636 143.983 71.1989C144.307 72.0341 144.469 73.0625 144.469 74.2841V75.1364H134.378V73.3977H142.423C142.423 72.6591 142.276 72 141.98 71.4205C141.69 70.8409 141.276 70.3835 140.736 70.0483C140.202 69.7131 139.571 69.5455 138.844 69.5455C138.043 69.5455 137.349 69.7443 136.764 70.142C136.185 70.5341 135.739 71.0455 135.426 71.6761C135.114 72.3068 134.957 72.983 134.957 73.7045V74.8636C134.957 75.8523 135.128 76.6903 135.469 77.3778C135.815 78.0597 136.295 78.5795 136.909 78.9375C137.523 79.2898 138.236 79.4659 139.048 79.4659C139.577 79.4659 140.054 79.392 140.48 79.2443C140.912 79.0909 141.284 78.8636 141.597 78.5625C141.909 78.2557 142.151 77.875 142.321 77.4205L144.264 77.9659C144.06 78.625 143.716 79.2045 143.233 79.7045C142.75 80.1989 142.153 80.5852 141.443 80.8636C140.733 81.1364 139.935 81.2727 139.048 81.2727Z" fill="black"/>
<rect x="144.006" y="140.298" width="345.769" height="157.214" fill="#EEEEEE"/>
<path d="M174.364 162.759H176.478V175.237C176.478 176.35 176.273 177.296 175.864 178.075C175.455 178.853 174.878 179.444 174.134 179.848C173.39 180.251 172.512 180.453 171.5 180.453C170.546 180.453 169.696 180.279 168.952 179.933C168.208 179.58 167.623 179.08 167.196 178.433C166.77 177.785 166.557 177.015 166.557 176.123H168.637C168.637 176.617 168.759 177.049 169.003 177.419C169.253 177.782 169.594 178.066 170.026 178.271C170.458 178.475 170.949 178.578 171.5 178.578C172.108 178.578 172.625 178.45 173.052 178.194C173.478 177.938 173.802 177.563 174.023 177.069C174.25 176.569 174.364 175.958 174.364 175.237V162.759ZM180.713 180.214V162.759H186.611C187.981 162.759 189.1 163.007 189.969 163.501C190.844 163.99 191.492 164.651 191.912 165.487C192.333 166.322 192.543 167.254 192.543 168.282C192.543 169.311 192.333 170.245 191.912 171.086C191.498 171.927 190.856 172.598 189.986 173.098C189.117 173.592 188.003 173.839 186.645 173.839H182.418V171.964H186.577C187.515 171.964 188.267 171.802 188.836 171.478C189.404 171.154 189.816 170.717 190.071 170.166C190.333 169.609 190.463 168.981 190.463 168.282C190.463 167.583 190.333 166.958 190.071 166.407C189.816 165.856 189.401 165.424 188.827 165.112C188.253 164.794 187.492 164.634 186.543 164.634H182.827V180.214H180.713ZM202.698 180.214V162.759H213.232V164.634H204.812V170.532H212.687V172.407H204.812V178.339H213.368V180.214H202.698ZM226.042 170.055L224.235 170.566C224.121 170.265 223.954 169.973 223.732 169.688C223.516 169.399 223.221 169.16 222.846 168.973C222.471 168.785 221.99 168.691 221.405 168.691C220.604 168.691 219.937 168.876 219.402 169.245C218.874 169.609 218.61 170.072 218.61 170.634C218.61 171.134 218.792 171.529 219.155 171.819C219.519 172.109 220.087 172.35 220.86 172.544L222.803 173.021C223.973 173.305 224.846 173.74 225.419 174.325C225.993 174.904 226.28 175.651 226.28 176.566C226.28 177.316 226.064 177.987 225.633 178.578C225.206 179.169 224.61 179.634 223.843 179.975C223.076 180.316 222.184 180.487 221.167 180.487C219.831 180.487 218.726 180.197 217.851 179.617C216.976 179.038 216.422 178.191 216.189 177.078L218.098 176.6C218.28 177.305 218.624 177.833 219.13 178.186C219.641 178.538 220.309 178.714 221.133 178.714C222.07 178.714 222.814 178.515 223.365 178.117C223.922 177.714 224.201 177.231 224.201 176.669C224.201 176.214 224.042 175.833 223.723 175.526C223.405 175.214 222.917 174.981 222.258 174.828L220.076 174.316C218.877 174.032 217.996 173.592 217.434 172.995C216.877 172.393 216.598 171.64 216.598 170.737C216.598 169.998 216.806 169.345 217.221 168.776C217.641 168.208 218.212 167.762 218.934 167.438C219.661 167.115 220.485 166.953 221.405 166.953C222.701 166.953 223.718 167.237 224.456 167.805C225.201 168.373 225.729 169.123 226.042 170.055ZM235.001 167.123V168.828H228.217V167.123H235.001ZM230.194 163.987H232.206V176.464C232.206 177.032 232.288 177.458 232.453 177.742C232.623 178.021 232.839 178.208 233.101 178.305C233.368 178.396 233.649 178.441 233.944 178.441C234.166 178.441 234.348 178.43 234.49 178.407C234.632 178.379 234.745 178.356 234.831 178.339L235.24 180.146C235.103 180.197 234.913 180.248 234.669 180.299C234.424 180.356 234.115 180.384 233.74 180.384C233.172 180.384 232.615 180.262 232.069 180.018C231.53 179.774 231.081 179.401 230.723 178.901C230.37 178.401 230.194 177.771 230.194 177.009V163.987ZM241.879 180.521C241.049 180.521 240.297 180.365 239.62 180.052C238.944 179.734 238.407 179.276 238.01 178.68C237.612 178.078 237.413 177.35 237.413 176.498C237.413 175.748 237.561 175.14 237.856 174.674C238.152 174.203 238.547 173.833 239.041 173.566C239.535 173.299 240.081 173.1 240.677 172.97C241.28 172.833 241.885 172.725 242.493 172.646C243.288 172.544 243.933 172.467 244.427 172.416C244.927 172.359 245.291 172.265 245.518 172.134C245.751 172.004 245.868 171.776 245.868 171.453V171.384C245.868 170.544 245.637 169.89 245.177 169.424C244.723 168.958 244.032 168.725 243.106 168.725C242.146 168.725 241.393 168.936 240.848 169.356C240.302 169.776 239.919 170.225 239.697 170.703L237.788 170.021C238.129 169.225 238.584 168.606 239.152 168.163C239.726 167.714 240.351 167.401 241.027 167.225C241.709 167.044 242.379 166.953 243.038 166.953C243.459 166.953 243.941 167.004 244.487 167.106C245.038 167.203 245.569 167.404 246.081 167.711C246.598 168.018 247.027 168.481 247.368 169.1C247.709 169.72 247.879 170.549 247.879 171.589V180.214H245.868V178.441H245.765C245.629 178.725 245.402 179.029 245.084 179.353C244.765 179.677 244.342 179.953 243.814 180.18C243.285 180.407 242.64 180.521 241.879 180.521ZM242.186 178.714C242.981 178.714 243.652 178.558 244.197 178.245C244.748 177.933 245.163 177.529 245.441 177.035C245.726 176.541 245.868 176.021 245.868 175.475V173.634C245.782 173.737 245.595 173.83 245.305 173.916C245.021 173.995 244.691 174.066 244.316 174.129C243.947 174.186 243.586 174.237 243.234 174.282C242.887 174.322 242.606 174.356 242.39 174.384C241.868 174.453 241.379 174.563 240.924 174.717C240.476 174.865 240.112 175.089 239.834 175.39C239.561 175.686 239.424 176.089 239.424 176.6C239.424 177.299 239.683 177.828 240.2 178.186C240.723 178.538 241.385 178.714 242.186 178.714ZM257.243 167.123V168.828H250.459V167.123H257.243ZM252.437 163.987H254.448V176.464C254.448 177.032 254.53 177.458 254.695 177.742C254.865 178.021 255.081 178.208 255.343 178.305C255.61 178.396 255.891 178.441 256.187 178.441C256.408 178.441 256.59 178.43 256.732 178.407C256.874 178.379 256.988 178.356 257.073 178.339L257.482 180.146C257.346 180.197 257.155 180.248 256.911 180.299C256.667 180.356 256.357 180.384 255.982 180.384C255.414 180.384 254.857 180.262 254.312 180.018C253.772 179.774 253.323 179.401 252.965 178.901C252.613 178.401 252.437 177.771 252.437 177.009V163.987ZM265.617 180.487C264.356 180.487 263.267 180.208 262.353 179.651C261.444 179.089 260.742 178.305 260.248 177.299C259.759 176.288 259.515 175.112 259.515 173.771C259.515 172.43 259.759 171.248 260.248 170.225C260.742 169.197 261.429 168.396 262.31 167.822C263.196 167.242 264.231 166.953 265.412 166.953C266.094 166.953 266.767 167.066 267.432 167.294C268.097 167.521 268.702 167.89 269.248 168.401C269.793 168.907 270.228 169.578 270.552 170.413C270.875 171.248 271.037 172.276 271.037 173.498V174.35H260.946V172.612H268.992C268.992 171.873 268.844 171.214 268.549 170.634C268.259 170.055 267.844 169.598 267.304 169.262C266.77 168.927 266.14 168.759 265.412 168.759C264.611 168.759 263.918 168.958 263.333 169.356C262.753 169.748 262.307 170.259 261.995 170.89C261.682 171.521 261.526 172.197 261.526 172.919V174.078C261.526 175.066 261.696 175.904 262.037 176.592C262.384 177.274 262.864 177.794 263.478 178.151C264.091 178.504 264.804 178.68 265.617 178.68C266.145 178.68 266.623 178.606 267.049 178.458C267.481 178.305 267.853 178.078 268.165 177.776C268.478 177.47 268.719 177.089 268.89 176.634L270.833 177.18C270.628 177.839 270.285 178.419 269.802 178.919C269.319 179.413 268.722 179.799 268.012 180.078C267.302 180.35 266.503 180.487 265.617 180.487ZM167.41 214.123V196.123H169.353V198.203H169.591C169.739 197.975 169.944 197.686 170.205 197.333C170.472 196.975 170.853 196.657 171.347 196.379C171.847 196.095 172.523 195.953 173.375 195.953C174.478 195.953 175.449 196.228 176.29 196.779C177.131 197.33 177.787 198.112 178.259 199.123C178.731 200.134 178.966 201.328 178.966 202.703C178.966 204.089 178.731 205.291 178.259 206.308C177.787 207.319 177.134 208.103 176.299 208.66C175.463 209.211 174.5 209.487 173.41 209.487C172.569 209.487 171.895 209.348 171.39 209.069C170.884 208.785 170.495 208.464 170.222 208.106C169.949 207.742 169.739 207.441 169.591 207.203H169.421V214.123H167.41ZM169.387 202.669C169.387 203.657 169.532 204.529 169.821 205.285C170.111 206.035 170.535 206.623 171.091 207.049C171.648 207.47 172.33 207.68 173.137 207.68C173.978 207.68 174.679 207.458 175.242 207.015C175.81 206.566 176.236 205.964 176.52 205.208C176.81 204.447 176.955 203.6 176.955 202.669C176.955 201.748 176.813 200.919 176.529 200.18C176.25 199.436 175.827 198.848 175.259 198.416C174.696 197.978 173.989 197.759 173.137 197.759C172.319 197.759 171.631 197.967 171.074 198.382C170.517 198.791 170.097 199.365 169.813 200.103C169.529 200.836 169.387 201.691 169.387 202.669ZM184.046 201.339V209.214H182.035V191.759H184.046V198.169H184.216C184.523 197.492 184.983 196.955 185.597 196.558C186.216 196.154 187.04 195.953 188.069 195.953C188.961 195.953 189.742 196.132 190.412 196.49C191.083 196.842 191.603 197.384 191.972 198.117C192.347 198.845 192.535 199.771 192.535 200.896V209.214H190.523V201.032C190.523 199.992 190.253 199.188 189.713 198.62C189.179 198.046 188.438 197.759 187.489 197.759C186.83 197.759 186.239 197.899 185.716 198.177C185.199 198.455 184.79 198.862 184.489 199.396C184.194 199.93 184.046 200.578 184.046 201.339ZM200.066 209.521C199.237 209.521 198.484 209.365 197.808 209.052C197.132 208.734 196.595 208.276 196.197 207.68C195.799 207.078 195.601 206.35 195.601 205.498C195.601 204.748 195.748 204.14 196.044 203.674C196.339 203.203 196.734 202.833 197.228 202.566C197.723 202.299 198.268 202.1 198.865 201.97C199.467 201.833 200.072 201.725 200.68 201.646C201.476 201.544 202.12 201.467 202.615 201.416C203.115 201.359 203.478 201.265 203.706 201.134C203.939 201.004 204.055 200.776 204.055 200.453V200.384C204.055 199.544 203.825 198.89 203.365 198.424C202.91 197.958 202.22 197.725 201.294 197.725C200.334 197.725 199.581 197.936 199.035 198.356C198.49 198.776 198.106 199.225 197.885 199.703L195.976 199.021C196.316 198.225 196.771 197.606 197.339 197.163C197.913 196.714 198.538 196.401 199.214 196.225C199.896 196.044 200.566 195.953 201.226 195.953C201.646 195.953 202.129 196.004 202.674 196.106C203.226 196.203 203.757 196.404 204.268 196.711C204.785 197.018 205.214 197.481 205.555 198.1C205.896 198.72 206.066 199.549 206.066 200.589V209.214H204.055V207.441H203.953C203.816 207.725 203.589 208.029 203.271 208.353C202.953 208.677 202.53 208.953 202.001 209.18C201.473 209.407 200.828 209.521 200.066 209.521ZM200.373 207.714C201.169 207.714 201.839 207.558 202.385 207.245C202.936 206.933 203.351 206.529 203.629 206.035C203.913 205.541 204.055 205.021 204.055 204.475V202.634C203.97 202.737 203.782 202.83 203.493 202.916C203.209 202.995 202.879 203.066 202.504 203.129C202.135 203.186 201.774 203.237 201.422 203.282C201.075 203.322 200.794 203.356 200.578 203.384C200.055 203.453 199.566 203.563 199.112 203.717C198.663 203.865 198.299 204.089 198.021 204.39C197.748 204.686 197.612 205.089 197.612 205.6C197.612 206.299 197.87 206.828 198.387 207.186C198.91 207.538 199.572 207.714 200.373 207.714ZM219.01 199.055L217.204 199.566C217.09 199.265 216.922 198.973 216.701 198.688C216.485 198.399 216.189 198.16 215.814 197.973C215.439 197.785 214.959 197.691 214.374 197.691C213.573 197.691 212.905 197.876 212.371 198.245C211.843 198.609 211.579 199.072 211.579 199.634C211.579 200.134 211.76 200.529 212.124 200.819C212.488 201.109 213.056 201.35 213.829 201.544L215.772 202.021C216.942 202.305 217.814 202.74 218.388 203.325C218.962 203.904 219.249 204.651 219.249 205.566C219.249 206.316 219.033 206.987 218.601 207.578C218.175 208.169 217.579 208.634 216.812 208.975C216.044 209.316 215.152 209.487 214.135 209.487C212.8 209.487 211.695 209.197 210.82 208.617C209.945 208.038 209.391 207.191 209.158 206.078L211.067 205.6C211.249 206.305 211.593 206.833 212.098 207.186C212.61 207.538 213.277 207.714 214.101 207.714C215.039 207.714 215.783 207.515 216.334 207.117C216.891 206.714 217.169 206.231 217.169 205.669C217.169 205.214 217.01 204.833 216.692 204.526C216.374 204.214 215.885 203.981 215.226 203.828L213.044 203.316C211.846 203.032 210.965 202.592 210.402 201.995C209.846 201.393 209.567 200.64 209.567 199.737C209.567 198.998 209.775 198.345 210.189 197.776C210.61 197.208 211.181 196.762 211.902 196.438C212.63 196.115 213.454 195.953 214.374 195.953C215.669 195.953 216.687 196.237 217.425 196.805C218.169 197.373 218.698 198.123 219.01 199.055ZM227.765 209.487C226.504 209.487 225.416 209.208 224.501 208.651C223.592 208.089 222.89 207.305 222.396 206.299C221.907 205.288 221.663 204.112 221.663 202.771C221.663 201.43 221.907 200.248 222.396 199.225C222.89 198.197 223.578 197.396 224.459 196.822C225.345 196.242 226.379 195.953 227.561 195.953C228.243 195.953 228.916 196.066 229.581 196.294C230.245 196.521 230.851 196.89 231.396 197.401C231.941 197.907 232.376 198.578 232.7 199.413C233.024 200.248 233.186 201.276 233.186 202.498V203.35H223.095V201.612H231.14C231.14 200.873 230.993 200.214 230.697 199.634C230.407 199.055 229.993 198.598 229.453 198.262C228.919 197.927 228.288 197.759 227.561 197.759C226.76 197.759 226.066 197.958 225.481 198.356C224.902 198.748 224.456 199.259 224.143 199.89C223.831 200.521 223.674 201.197 223.674 201.919V203.078C223.674 204.066 223.845 204.904 224.186 205.592C224.532 206.274 225.012 206.794 225.626 207.151C226.24 207.504 226.953 207.68 227.765 207.68C228.294 207.68 228.771 207.606 229.197 207.458C229.629 207.305 230.001 207.078 230.314 206.776C230.626 206.47 230.868 206.089 231.038 205.634L232.981 206.18C232.777 206.839 232.433 207.419 231.95 207.919C231.467 208.413 230.87 208.799 230.16 209.078C229.45 209.35 228.652 209.487 227.765 209.487ZM242.348 191.759V209.214H240.234V193.975H240.132L235.87 196.805V194.657L240.234 191.759H242.348Z" fill="black"/>
<rect x="153.247" y="190.05" width="228.716" height="44.7761" fill="#808080"/>
<path d="M175.795 203.545H177.909V216.023C177.909 217.136 177.705 218.082 177.295 218.861C176.886 219.639 176.31 220.23 175.565 220.634C174.821 221.037 173.943 221.239 172.932 221.239C171.977 221.239 171.128 221.065 170.384 220.719C169.639 220.366 169.054 219.866 168.628 219.219C168.202 218.571 167.989 217.801 167.989 216.909H170.068C170.068 217.403 170.19 217.835 170.435 218.205C170.685 218.568 171.026 218.852 171.457 219.057C171.889 219.261 172.381 219.364 172.932 219.364C173.54 219.364 174.057 219.236 174.483 218.98C174.909 218.724 175.233 218.349 175.455 217.855C175.682 217.355 175.795 216.744 175.795 216.023V203.545ZM182.145 221V203.545H188.043C189.412 203.545 190.531 203.793 191.401 204.287C192.276 204.776 192.923 205.438 193.344 206.273C193.764 207.108 193.974 208.04 193.974 209.068C193.974 210.097 193.764 211.031 193.344 211.872C192.929 212.713 192.287 213.384 191.418 213.884C190.548 214.378 189.435 214.625 188.077 214.625H183.849V212.75H188.009C188.946 212.75 189.699 212.588 190.267 212.264C190.835 211.94 191.247 211.503 191.503 210.952C191.764 210.395 191.895 209.767 191.895 209.068C191.895 208.369 191.764 207.744 191.503 207.193C191.247 206.642 190.832 206.21 190.259 205.898C189.685 205.58 188.923 205.42 187.974 205.42H184.259V221H182.145ZM204.129 221V203.545H214.663V205.42H206.243V211.318H214.118V213.193H206.243V219.125H214.8V221H204.129ZM227.473 210.841L225.666 211.352C225.553 211.051 225.385 210.759 225.163 210.474C224.947 210.185 224.652 209.946 224.277 209.759C223.902 209.571 223.422 209.477 222.837 209.477C222.036 209.477 221.368 209.662 220.834 210.031C220.305 210.395 220.041 210.858 220.041 211.42C220.041 211.92 220.223 212.315 220.587 212.605C220.95 212.895 221.518 213.136 222.291 213.33L224.234 213.807C225.405 214.091 226.277 214.526 226.851 215.111C227.425 215.69 227.712 216.437 227.712 217.352C227.712 218.102 227.496 218.773 227.064 219.364C226.638 219.955 226.041 220.42 225.274 220.761C224.507 221.102 223.615 221.273 222.598 221.273C221.263 221.273 220.158 220.983 219.283 220.403C218.408 219.824 217.854 218.977 217.621 217.864L219.53 217.386C219.712 218.091 220.055 218.619 220.561 218.972C221.072 219.324 221.74 219.5 222.564 219.5C223.501 219.5 224.246 219.301 224.797 218.903C225.354 218.5 225.632 218.017 225.632 217.455C225.632 217 225.473 216.619 225.155 216.312C224.837 216 224.348 215.767 223.689 215.614L221.507 215.102C220.308 214.818 219.428 214.378 218.865 213.781C218.308 213.179 218.03 212.426 218.03 211.523C218.03 210.784 218.237 210.131 218.652 209.562C219.072 208.994 219.643 208.548 220.365 208.224C221.092 207.901 221.916 207.739 222.837 207.739C224.132 207.739 225.149 208.023 225.888 208.591C226.632 209.159 227.161 209.909 227.473 210.841ZM236.433 207.909V209.614H229.648V207.909H236.433ZM231.626 204.773H233.637V217.25C233.637 217.818 233.719 218.244 233.884 218.528C234.055 218.807 234.271 218.994 234.532 219.091C234.799 219.182 235.08 219.227 235.376 219.227C235.597 219.227 235.779 219.216 235.921 219.193C236.063 219.165 236.177 219.142 236.262 219.125L236.671 220.932C236.535 220.983 236.344 221.034 236.1 221.085C235.856 221.142 235.546 221.17 235.171 221.17C234.603 221.17 234.046 221.048 233.501 220.804C232.961 220.56 232.512 220.188 232.154 219.688C231.802 219.188 231.626 218.557 231.626 217.795V204.773ZM243.31 221.307C242.481 221.307 241.728 221.151 241.052 220.838C240.376 220.52 239.839 220.062 239.441 219.466C239.043 218.864 238.844 218.136 238.844 217.284C238.844 216.534 238.992 215.926 239.288 215.46C239.583 214.989 239.978 214.619 240.472 214.352C240.967 214.085 241.512 213.886 242.109 213.756C242.711 213.619 243.316 213.511 243.924 213.432C244.719 213.33 245.364 213.253 245.859 213.202C246.359 213.145 246.722 213.051 246.95 212.92C247.183 212.79 247.299 212.562 247.299 212.239V212.17C247.299 211.33 247.069 210.676 246.609 210.21C246.154 209.744 245.464 209.511 244.538 209.511C243.577 209.511 242.825 209.722 242.279 210.142C241.734 210.562 241.35 211.011 241.129 211.489L239.219 210.807C239.56 210.011 240.015 209.392 240.583 208.949C241.157 208.5 241.782 208.187 242.458 208.011C243.14 207.83 243.81 207.739 244.469 207.739C244.89 207.739 245.373 207.79 245.918 207.892C246.469 207.989 247.001 208.19 247.512 208.497C248.029 208.804 248.458 209.267 248.799 209.886C249.14 210.506 249.31 211.335 249.31 212.375V221H247.299V219.227H247.197C247.06 219.511 246.833 219.815 246.515 220.139C246.197 220.463 245.773 220.739 245.245 220.966C244.717 221.193 244.072 221.307 243.31 221.307ZM243.617 219.5C244.413 219.5 245.083 219.344 245.629 219.031C246.18 218.719 246.594 218.315 246.873 217.821C247.157 217.327 247.299 216.807 247.299 216.261V214.42C247.214 214.523 247.026 214.616 246.737 214.702C246.452 214.781 246.123 214.852 245.748 214.915C245.379 214.972 245.018 215.023 244.665 215.068C244.319 215.108 244.038 215.142 243.822 215.17C243.299 215.239 242.81 215.349 242.356 215.503C241.907 215.651 241.543 215.875 241.265 216.176C240.992 216.472 240.856 216.875 240.856 217.386C240.856 218.085 241.114 218.614 241.631 218.972C242.154 219.324 242.816 219.5 243.617 219.5ZM258.675 207.909V209.614H251.891V207.909H258.675ZM253.868 204.773H255.879V217.25C255.879 217.818 255.962 218.244 256.126 218.528C256.297 218.807 256.513 218.994 256.774 219.091C257.041 219.182 257.322 219.227 257.618 219.227C257.839 219.227 258.021 219.216 258.163 219.193C258.305 219.165 258.419 219.142 258.504 219.125L258.913 220.932C258.777 220.983 258.587 221.034 258.342 221.085C258.098 221.142 257.788 221.17 257.413 221.17C256.845 221.17 256.288 221.048 255.743 220.804C255.203 220.56 254.754 220.188 254.396 219.688C254.044 219.188 253.868 218.557 253.868 217.795V204.773ZM267.048 221.273C265.787 221.273 264.699 220.994 263.784 220.438C262.875 219.875 262.173 219.091 261.679 218.085C261.19 217.074 260.946 215.898 260.946 214.557C260.946 213.216 261.19 212.034 261.679 211.011C262.173 209.983 262.861 209.182 263.741 208.608C264.628 208.028 265.662 207.739 266.844 207.739C267.526 207.739 268.199 207.852 268.864 208.08C269.528 208.307 270.134 208.676 270.679 209.188C271.224 209.693 271.659 210.364 271.983 211.199C272.307 212.034 272.469 213.062 272.469 214.284V215.136H262.378V213.398H270.423C270.423 212.659 270.276 212 269.98 211.42C269.69 210.841 269.276 210.384 268.736 210.048C268.202 209.713 267.571 209.545 266.844 209.545C266.043 209.545 265.349 209.744 264.764 210.142C264.185 210.534 263.739 211.045 263.426 211.676C263.114 212.307 262.957 212.983 262.957 213.705V214.864C262.957 215.852 263.128 216.69 263.469 217.378C263.815 218.06 264.295 218.58 264.909 218.938C265.523 219.29 266.236 219.466 267.048 219.466C267.577 219.466 268.054 219.392 268.48 219.244C268.912 219.091 269.284 218.864 269.597 218.562C269.909 218.256 270.151 217.875 270.321 217.42L272.264 217.966C272.06 218.625 271.716 219.205 271.233 219.705C270.75 220.199 270.153 220.585 269.443 220.864C268.733 221.136 267.935 221.273 267.048 221.273ZM282.278 225.909V207.909H284.222V209.989H284.46C284.608 209.761 284.813 209.472 285.074 209.119C285.341 208.761 285.722 208.443 286.216 208.165C286.716 207.881 287.392 207.739 288.244 207.739C289.347 207.739 290.318 208.014 291.159 208.565C292 209.116 292.656 209.898 293.128 210.909C293.599 211.92 293.835 213.114 293.835 214.489C293.835 215.875 293.599 217.077 293.128 218.094C292.656 219.105 292.003 219.889 291.168 220.446C290.332 220.997 289.369 221.273 288.278 221.273C287.438 221.273 286.764 221.134 286.259 220.855C285.753 220.571 285.364 220.25 285.091 219.892C284.818 219.528 284.608 219.227 284.46 218.989H284.29V225.909H282.278ZM284.256 214.455C284.256 215.443 284.401 216.315 284.69 217.071C284.98 217.821 285.403 218.409 285.96 218.835C286.517 219.256 287.199 219.466 288.006 219.466C288.847 219.466 289.548 219.244 290.111 218.801C290.679 218.352 291.105 217.75 291.389 216.994C291.679 216.233 291.824 215.386 291.824 214.455C291.824 213.534 291.682 212.705 291.398 211.966C291.119 211.222 290.696 210.634 290.128 210.202C289.565 209.764 288.858 209.545 288.006 209.545C287.188 209.545 286.5 209.753 285.943 210.168C285.386 210.577 284.966 211.151 284.682 211.889C284.398 212.622 284.256 213.477 284.256 214.455ZM298.915 213.125V221H296.903V203.545H298.915V209.955H299.085C299.392 209.278 299.852 208.741 300.466 208.344C301.085 207.94 301.909 207.739 302.938 207.739C303.83 207.739 304.611 207.918 305.281 208.276C305.952 208.628 306.472 209.17 306.841 209.903C307.216 210.631 307.403 211.557 307.403 212.682V221H305.392V212.818C305.392 211.778 305.122 210.974 304.582 210.406C304.048 209.832 303.307 209.545 302.358 209.545C301.699 209.545 301.108 209.685 300.585 209.963C300.068 210.241 299.659 210.648 299.358 211.182C299.063 211.716 298.915 212.364 298.915 213.125ZM314.935 221.307C314.106 221.307 313.353 221.151 312.677 220.838C312.001 220.52 311.464 220.062 311.066 219.466C310.668 218.864 310.469 218.136 310.469 217.284C310.469 216.534 310.617 215.926 310.913 215.46C311.208 214.989 311.603 214.619 312.097 214.352C312.592 214.085 313.137 213.886 313.734 213.756C314.336 213.619 314.941 213.511 315.549 213.432C316.344 213.33 316.989 213.253 317.484 213.202C317.984 213.145 318.347 213.051 318.575 212.92C318.808 212.79 318.924 212.562 318.924 212.239V212.17C318.924 211.33 318.694 210.676 318.234 210.21C317.779 209.744 317.089 209.511 316.163 209.511C315.202 209.511 314.45 209.722 313.904 210.142C313.359 210.562 312.975 211.011 312.754 211.489L310.844 210.807C311.185 210.011 311.64 209.392 312.208 208.949C312.782 208.5 313.407 208.187 314.083 208.011C314.765 207.83 315.435 207.739 316.094 207.739C316.515 207.739 316.998 207.79 317.543 207.892C318.094 207.989 318.626 208.19 319.137 208.497C319.654 208.804 320.083 209.267 320.424 209.886C320.765 210.506 320.935 211.335 320.935 212.375V221H318.924V219.227H318.822C318.685 219.511 318.458 219.815 318.14 220.139C317.822 220.463 317.398 220.739 316.87 220.966C316.342 221.193 315.697 221.307 314.935 221.307ZM315.242 219.5C316.038 219.5 316.708 219.344 317.254 219.031C317.805 218.719 318.219 218.315 318.498 217.821C318.782 217.327 318.924 216.807 318.924 216.261V214.42C318.839 214.523 318.651 214.616 318.362 214.702C318.077 214.781 317.748 214.852 317.373 214.915C317.004 214.972 316.643 215.023 316.29 215.068C315.944 215.108 315.663 215.142 315.447 215.17C314.924 215.239 314.435 215.349 313.981 215.503C313.532 215.651 313.168 215.875 312.89 216.176C312.617 216.472 312.481 216.875 312.481 217.386C312.481 218.085 312.739 218.614 313.256 218.972C313.779 219.324 314.441 219.5 315.242 219.5ZM333.879 210.841L332.072 211.352C331.959 211.051 331.791 210.759 331.57 210.474C331.354 210.185 331.058 209.946 330.683 209.759C330.308 209.571 329.828 209.477 329.243 209.477C328.442 209.477 327.774 209.662 327.24 210.031C326.712 210.395 326.447 210.858 326.447 211.42C326.447 211.92 326.629 212.315 326.993 212.605C327.357 212.895 327.925 213.136 328.697 213.33L330.641 213.807C331.811 214.091 332.683 214.526 333.257 215.111C333.831 215.69 334.118 216.437 334.118 217.352C334.118 218.102 333.902 218.773 333.47 219.364C333.044 219.955 332.447 220.42 331.68 220.761C330.913 221.102 330.021 221.273 329.004 221.273C327.669 221.273 326.564 220.983 325.689 220.403C324.814 219.824 324.26 218.977 324.027 217.864L325.936 217.386C326.118 218.091 326.462 218.619 326.967 218.972C327.479 219.324 328.146 219.5 328.97 219.5C329.908 219.5 330.652 219.301 331.203 218.903C331.76 218.5 332.038 218.017 332.038 217.455C332.038 217 331.879 216.619 331.561 216.312C331.243 216 330.754 215.767 330.095 215.614L327.913 215.102C326.714 214.818 325.834 214.378 325.271 213.781C324.714 213.179 324.436 212.426 324.436 211.523C324.436 210.784 324.643 210.131 325.058 209.562C325.479 208.994 326.05 208.548 326.771 208.224C327.499 207.901 328.322 207.739 329.243 207.739C330.538 207.739 331.555 208.023 332.294 208.591C333.038 209.159 333.567 209.909 333.879 210.841ZM342.634 221.273C341.373 221.273 340.285 220.994 339.37 220.438C338.461 219.875 337.759 219.091 337.265 218.085C336.776 217.074 336.532 215.898 336.532 214.557C336.532 213.216 336.776 212.034 337.265 211.011C337.759 209.983 338.447 209.182 339.327 208.608C340.214 208.028 341.248 207.739 342.43 207.739C343.112 207.739 343.785 207.852 344.45 208.08C345.114 208.307 345.719 208.676 346.265 209.188C346.81 209.693 347.245 210.364 347.569 211.199C347.893 212.034 348.055 213.062 348.055 214.284V215.136H337.964V213.398H346.009C346.009 212.659 345.862 212 345.566 211.42C345.276 210.841 344.862 210.384 344.322 210.048C343.788 209.713 343.157 209.545 342.43 209.545C341.629 209.545 340.935 209.744 340.35 210.142C339.771 210.534 339.325 211.045 339.012 211.676C338.7 212.307 338.543 212.983 338.543 213.705V214.864C338.543 215.852 338.714 216.69 339.055 217.378C339.401 218.06 339.881 218.58 340.495 218.938C341.109 219.29 341.822 219.466 342.634 219.466C343.163 219.466 343.64 219.392 344.066 219.244C344.498 219.091 344.87 218.864 345.183 218.562C345.495 218.256 345.737 217.875 345.907 217.42L347.85 217.966C347.646 218.625 347.302 219.205 346.819 219.705C346.336 220.199 345.739 220.585 345.029 220.864C344.319 221.136 343.521 221.273 342.634 221.273ZM351.08 221V219.466L356.842 213.159C357.518 212.42 358.075 211.778 358.512 211.233C358.95 210.682 359.273 210.165 359.484 209.682C359.7 209.193 359.808 208.682 359.808 208.148C359.808 207.534 359.66 207.003 359.364 206.554C359.075 206.105 358.677 205.759 358.171 205.514C357.665 205.27 357.097 205.148 356.467 205.148C355.796 205.148 355.211 205.287 354.711 205.565C354.217 205.838 353.833 206.222 353.56 206.716C353.293 207.21 353.16 207.79 353.16 208.455H351.148C351.148 207.432 351.384 206.534 351.856 205.761C352.327 204.989 352.969 204.386 353.782 203.955C354.6 203.523 355.518 203.307 356.535 203.307C357.558 203.307 358.464 203.523 359.254 203.955C360.043 204.386 360.663 204.969 361.112 205.702C361.56 206.435 361.785 207.25 361.785 208.148C361.785 208.79 361.668 209.418 361.435 210.031C361.208 210.639 360.81 211.318 360.242 212.068C359.68 212.812 358.898 213.722 357.898 214.795L353.978 218.989V219.125H362.092V221H351.08Z" fill="black"/>
<path d="M175.8 244.545H177.914V257.023C177.914 258.136 177.709 259.082 177.3 259.861C176.891 260.639 176.314 261.23 175.57 261.634C174.826 262.037 173.948 262.239 172.936 262.239C171.982 262.239 171.132 262.065 170.388 261.719C169.644 261.366 169.059 260.866 168.632 260.219C168.206 259.571 167.993 258.801 167.993 257.909H170.073C170.073 258.403 170.195 258.835 170.439 259.205C170.689 259.568 171.03 259.852 171.462 260.057C171.894 260.261 172.385 260.364 172.936 260.364C173.544 260.364 174.061 260.236 174.488 259.98C174.914 259.724 175.238 259.349 175.459 258.855C175.686 258.355 175.8 257.744 175.8 257.023V244.545ZM182.15 262V244.545H188.047C189.417 244.545 190.536 244.793 191.405 245.287C192.28 245.776 192.928 246.438 193.348 247.273C193.769 248.108 193.979 249.04 193.979 250.068C193.979 251.097 193.769 252.031 193.348 252.872C192.934 253.713 192.292 254.384 191.422 254.884C190.553 255.378 189.439 255.625 188.081 255.625H183.854V253.75H188.013C188.951 253.75 189.704 253.588 190.272 253.264C190.84 252.94 191.252 252.503 191.507 251.952C191.769 251.395 191.9 250.767 191.9 250.068C191.9 249.369 191.769 248.744 191.507 248.193C191.252 247.642 190.837 247.21 190.263 246.898C189.689 246.58 188.928 246.42 187.979 246.42H184.263V262H182.15ZM202.289 262.273C201.107 262.273 200.07 261.991 199.178 261.429C198.292 260.866 197.598 260.08 197.098 259.068C196.604 258.057 196.357 256.875 196.357 255.523C196.357 254.159 196.604 252.969 197.098 251.952C197.598 250.935 198.292 250.145 199.178 249.582C200.07 249.02 201.107 248.739 202.289 248.739C203.471 248.739 204.505 249.02 205.391 249.582C206.283 250.145 206.976 250.935 207.471 251.952C207.971 252.969 208.221 254.159 208.221 255.523C208.221 256.875 207.971 258.057 207.471 259.068C206.976 260.08 206.283 260.866 205.391 261.429C204.505 261.991 203.471 262.273 202.289 262.273ZM202.289 260.466C203.186 260.466 203.925 260.236 204.505 259.776C205.084 259.315 205.513 258.71 205.792 257.96C206.07 257.21 206.209 256.398 206.209 255.523C206.209 254.648 206.07 253.832 205.792 253.077C205.513 252.321 205.084 251.71 204.505 251.244C203.925 250.778 203.186 250.545 202.289 250.545C201.391 250.545 200.652 250.778 200.073 251.244C199.493 251.71 199.064 252.321 198.786 253.077C198.507 253.832 198.368 254.648 198.368 255.523C198.368 256.398 198.507 257.21 198.786 257.96C199.064 258.71 199.493 259.315 200.073 259.776C200.652 260.236 201.391 260.466 202.289 260.466ZM211.291 262V248.909H213.302V262H211.291ZM212.314 246.727C211.922 246.727 211.583 246.594 211.299 246.327C211.021 246.06 210.882 245.739 210.882 245.364C210.882 244.989 211.021 244.668 211.299 244.401C211.583 244.134 211.922 244 212.314 244C212.706 244 213.041 244.134 213.319 244.401C213.603 244.668 213.745 244.989 213.745 245.364C213.745 245.739 213.603 246.06 213.319 246.327C213.041 246.594 212.706 246.727 212.314 246.727ZM218.998 254.125V262H216.986V248.909H218.929V250.955H219.1C219.407 250.29 219.873 249.756 220.498 249.352C221.123 248.943 221.929 248.739 222.918 248.739C223.804 248.739 224.58 248.92 225.245 249.284C225.909 249.642 226.427 250.188 226.796 250.92C227.165 251.648 227.35 252.568 227.35 253.682V262H225.338V253.818C225.338 252.79 225.071 251.989 224.537 251.415C224.003 250.835 223.27 250.545 222.338 250.545C221.696 250.545 221.123 250.685 220.617 250.963C220.117 251.241 219.722 251.648 219.432 252.182C219.142 252.716 218.998 253.364 218.998 254.125ZM236.718 248.909V250.614H229.934V248.909H236.718ZM231.912 245.773H233.923V258.25C233.923 258.818 234.005 259.244 234.17 259.528C234.341 259.807 234.556 259.994 234.818 260.091C235.085 260.182 235.366 260.227 235.662 260.227C235.883 260.227 236.065 260.216 236.207 260.193C236.349 260.165 236.463 260.142 236.548 260.125L236.957 261.932C236.821 261.983 236.63 262.034 236.386 262.085C236.142 262.142 235.832 262.17 235.457 262.17C234.889 262.17 234.332 262.048 233.787 261.804C233.247 261.56 232.798 261.188 232.44 260.688C232.088 260.188 231.912 259.557 231.912 258.795V245.773ZM246.767 262V244.545H257.301V246.42H248.88V252.318H256.755V254.193H248.88V260.125H257.437V262H246.767ZM270.11 251.841L268.304 252.352C268.19 252.051 268.022 251.759 267.801 251.474C267.585 251.185 267.289 250.946 266.914 250.759C266.539 250.571 266.059 250.477 265.474 250.477C264.673 250.477 264.005 250.662 263.471 251.031C262.943 251.395 262.679 251.858 262.679 252.42C262.679 252.92 262.86 253.315 263.224 253.605C263.588 253.895 264.156 254.136 264.929 254.33L266.872 254.807C268.042 255.091 268.914 255.526 269.488 256.111C270.062 256.69 270.349 257.437 270.349 258.352C270.349 259.102 270.133 259.773 269.701 260.364C269.275 260.955 268.679 261.42 267.912 261.761C267.145 262.102 266.253 262.273 265.235 262.273C263.9 262.273 262.795 261.983 261.92 261.403C261.045 260.824 260.491 259.977 260.258 258.864L262.167 258.386C262.349 259.091 262.693 259.619 263.199 259.972C263.71 260.324 264.378 260.5 265.201 260.5C266.139 260.5 266.883 260.301 267.434 259.903C267.991 259.5 268.27 259.017 268.27 258.455C268.27 258 268.11 257.619 267.792 257.312C267.474 257 266.985 256.767 266.326 256.614L264.145 256.102C262.946 255.818 262.065 255.378 261.503 254.781C260.946 254.179 260.667 253.426 260.667 252.523C260.667 251.784 260.875 251.131 261.289 250.562C261.71 249.994 262.281 249.548 263.003 249.224C263.73 248.901 264.554 248.739 265.474 248.739C266.77 248.739 267.787 249.023 268.525 249.591C269.27 250.159 269.798 250.909 270.11 251.841ZM279.07 248.909V250.614H272.286V248.909H279.07ZM274.263 245.773H276.275V258.25C276.275 258.818 276.357 259.244 276.522 259.528C276.692 259.807 276.908 259.994 277.169 260.091C277.436 260.182 277.718 260.227 278.013 260.227C278.235 260.227 278.417 260.216 278.559 260.193C278.701 260.165 278.814 260.142 278.9 260.125L279.309 261.932C279.172 261.983 278.982 262.034 278.738 262.085C278.493 262.142 278.184 262.17 277.809 262.17C277.24 262.17 276.684 262.048 276.138 261.804C275.598 261.56 275.15 261.188 274.792 260.688C274.439 260.188 274.263 259.557 274.263 258.795V245.773ZM285.948 262.307C285.118 262.307 284.365 262.151 283.689 261.838C283.013 261.52 282.476 261.062 282.079 260.466C281.681 259.864 281.482 259.136 281.482 258.284C281.482 257.534 281.63 256.926 281.925 256.46C282.221 255.989 282.615 255.619 283.11 255.352C283.604 255.085 284.15 254.886 284.746 254.756C285.348 254.619 285.954 254.511 286.561 254.432C287.357 254.33 288.002 254.253 288.496 254.202C288.996 254.145 289.36 254.051 289.587 253.92C289.82 253.79 289.936 253.562 289.936 253.239V253.17C289.936 252.33 289.706 251.676 289.246 251.21C288.792 250.744 288.101 250.511 287.175 250.511C286.215 250.511 285.462 250.722 284.917 251.142C284.371 251.562 283.988 252.011 283.766 252.489L281.857 251.807C282.198 251.011 282.652 250.392 283.221 249.949C283.794 249.5 284.419 249.187 285.096 249.011C285.777 248.83 286.448 248.739 287.107 248.739C287.527 248.739 288.01 248.79 288.556 248.892C289.107 248.989 289.638 249.19 290.15 249.497C290.667 249.804 291.096 250.267 291.436 250.886C291.777 251.506 291.948 252.335 291.948 253.375V262H289.936V260.227H289.834C289.698 260.511 289.471 260.815 289.152 261.139C288.834 261.463 288.411 261.739 287.882 261.966C287.354 262.193 286.709 262.307 285.948 262.307ZM286.255 260.5C287.05 260.5 287.721 260.344 288.266 260.031C288.817 259.719 289.232 259.315 289.51 258.821C289.794 258.327 289.936 257.807 289.936 257.261V255.42C289.851 255.523 289.664 255.616 289.374 255.702C289.09 255.781 288.76 255.852 288.385 255.915C288.016 255.972 287.655 256.023 287.303 256.068C286.956 256.108 286.675 256.142 286.459 256.17C285.936 256.239 285.448 256.349 284.993 256.503C284.544 256.651 284.181 256.875 283.902 257.176C283.63 257.472 283.493 257.875 283.493 258.386C283.493 259.085 283.752 259.614 284.269 259.972C284.792 260.324 285.454 260.5 286.255 260.5ZM301.312 248.909V250.614H294.528V248.909H301.312ZM296.505 245.773H298.517V258.25C298.517 258.818 298.599 259.244 298.764 259.528C298.934 259.807 299.15 259.994 299.412 260.091C299.679 260.182 299.96 260.227 300.255 260.227C300.477 260.227 300.659 260.216 300.801 260.193C300.943 260.165 301.056 260.142 301.142 260.125L301.551 261.932C301.414 261.983 301.224 262.034 300.98 262.085C300.735 262.142 300.426 262.17 300.051 262.17C299.483 262.17 298.926 262.048 298.38 261.804C297.841 261.56 297.392 261.188 297.034 260.688C296.681 260.188 296.505 259.557 296.505 258.795V245.773ZM309.686 262.273C308.424 262.273 307.336 261.994 306.422 261.438C305.512 260.875 304.811 260.091 304.316 259.085C303.828 258.074 303.583 256.898 303.583 255.557C303.583 254.216 303.828 253.034 304.316 252.011C304.811 250.983 305.498 250.182 306.379 249.608C307.265 249.028 308.299 248.739 309.481 248.739C310.163 248.739 310.836 248.852 311.501 249.08C312.166 249.307 312.771 249.676 313.316 250.188C313.862 250.693 314.297 251.364 314.62 252.199C314.944 253.034 315.106 254.062 315.106 255.284V256.136H305.015V254.398H313.061C313.061 253.659 312.913 253 312.618 252.42C312.328 251.841 311.913 251.384 311.373 251.048C310.839 250.713 310.208 250.545 309.481 250.545C308.68 250.545 307.987 250.744 307.402 251.142C306.822 251.534 306.376 252.045 306.064 252.676C305.751 253.307 305.595 253.983 305.595 254.705V255.864C305.595 256.852 305.765 257.69 306.106 258.378C306.453 259.06 306.933 259.58 307.547 259.938C308.16 260.29 308.873 260.466 309.686 260.466C310.214 260.466 310.691 260.392 311.118 260.244C311.549 260.091 311.922 259.864 312.234 259.562C312.547 259.256 312.788 258.875 312.958 258.42L314.902 258.966C314.697 259.625 314.353 260.205 313.87 260.705C313.387 261.199 312.791 261.585 312.081 261.864C311.37 262.136 310.572 262.273 309.686 262.273Z" fill="black"/>
<path d="M332.634 107.058L343.319 96.1087C343.819 95.5963 344.456 95.3615 345.09 95.456C345.724 95.5506 346.303 95.9667 346.7 96.6128C347.096 97.2589 347.278 98.0822 347.205 98.9014C347.132 99.7207 346.81 100.469 346.31 100.981L336.882 110.642M337.511 109.998L340.025 107.422C340.525 106.909 341.162 106.675 341.796 106.769C342.43 106.864 343.009 107.28 343.405 107.926C343.802 108.572 343.984 109.395 343.911 110.215C343.837 111.034 343.515 111.782 343.015 112.294L339.873 115.515M341.758 113.583C342.258 113.07 342.896 112.835 343.53 112.93C344.164 113.024 344.743 113.44 345.139 114.087C345.536 114.733 345.718 115.556 345.644 116.375C345.571 117.194 345.249 117.943 344.749 118.455L342.864 120.387" stroke="black" stroke-width="2" stroke-linecap="round" stroke-linejoin="round"/>
<path d="M343.492 119.743C343.992 119.231 344.629 118.996 345.263 119.091C345.897 119.185 346.476 119.601 346.873 120.247C347.27 120.893 347.451 121.717 347.378 122.536C347.305 123.355 346.983 124.103 346.483 124.616L340.826 130.412C338.826 132.462 336.278 133.401 333.741 133.023C331.205 132.645 328.889 130.981 327.303 128.396L325.309 125.148L325.516 125.486C324.525 123.872 323.86 121.966 323.581 119.938C323.301 117.91 323.415 115.824 323.914 113.867L324.095 113.163C324.386 112.039 325.694 107.801 328.019 100.447C328.256 99.6974 328.71 99.0968 329.285 98.773C329.859 98.4491 330.509 98.4276 331.095 98.7131C332.38 99.3384 333.173 101.013 333.016 102.777L332.634 107.058" stroke="black" stroke-width="2" stroke-linecap="round" stroke-linejoin="round"/>
<path d="M134.722 228.451L145.406 217.502C145.907 216.989 146.544 216.754 147.178 216.849C147.812 216.944 148.391 217.36 148.787 218.006C149.184 218.652 149.366 219.475 149.292 220.294C149.219 221.114 148.897 221.862 148.397 222.374L138.97 232.035M139.598 231.391L142.112 228.815C142.612 228.302 143.249 228.068 143.883 228.162C144.518 228.257 145.097 228.673 145.493 229.319C145.89 229.965 146.071 230.788 145.998 231.608C145.925 232.427 145.603 233.175 145.103 233.687L141.961 236.908M143.846 234.975C144.346 234.463 144.983 234.228 145.617 234.323C146.251 234.417 146.83 234.833 147.227 235.48C147.624 236.126 147.805 236.949 147.732 237.768C147.659 238.587 147.337 239.336 146.837 239.848L144.951 241.78" stroke="black" stroke-width="2" stroke-linecap="round" stroke-linejoin="round"/>
<path d="M145.58 241.136C146.08 240.624 146.717 240.389 147.351 240.483C147.985 240.578 148.564 240.994 148.961 241.64C149.357 242.286 149.539 243.11 149.466 243.929C149.393 244.748 149.071 245.496 148.571 246.009L142.914 251.805C140.914 253.855 138.365 254.794 135.829 254.416C133.293 254.038 130.977 252.374 129.391 249.789L127.397 246.541L127.604 246.879C126.613 245.265 125.948 243.359 125.668 241.331C125.389 239.303 125.503 237.217 126.001 235.26L126.183 234.555C126.474 233.432 127.782 229.194 130.107 221.84C130.344 221.09 130.798 220.49 131.373 220.166C131.947 219.842 132.597 219.821 133.183 220.106C134.468 220.731 135.261 222.406 135.104 224.17L134.722 228.451" stroke="black" stroke-width="2" stroke-linecap="round" stroke-linejoin="round"/>
<path d="M512.641 223.231L518.818 207.522C519.108 206.787 519.611 206.231 520.218 205.975C520.824 205.719 521.485 205.785 522.054 206.159C522.623 206.532 523.054 207.183 523.252 207.967C523.45 208.751 523.399 209.604 523.109 210.34L517.659 224.2M518.022 223.276L519.476 219.58C519.765 218.845 520.268 218.288 520.875 218.032C521.482 217.777 522.142 217.843 522.711 218.216C523.28 218.59 523.711 219.24 523.909 220.024C524.107 220.808 524.056 221.662 523.767 222.397L521.95 227.017M523.04 224.245C523.329 223.51 523.832 222.953 524.439 222.698C525.046 222.442 525.706 222.508 526.275 222.882C526.844 223.255 527.275 223.905 527.473 224.69C527.671 225.474 527.62 226.327 527.331 227.062L526.241 229.834" stroke="black" stroke-width="2" stroke-linecap="round" stroke-linejoin="round"/>
<path d="M526.604 228.91C526.893 228.175 527.396 227.618 528.003 227.363C528.61 227.107 529.271 227.173 529.84 227.547C530.409 227.92 530.839 228.571 531.037 229.355C531.235 230.139 531.184 230.992 530.895 231.727L527.625 240.044C526.468 242.985 524.455 245.211 522.028 246.234C519.601 247.257 516.958 246.992 514.682 245.498L511.822 243.62L512.119 243.815C510.698 242.883 509.478 241.508 508.569 239.816C507.661 238.124 507.091 236.166 506.913 234.119L506.85 233.381C506.752 232.203 506.573 227.646 506.313 219.709C506.287 218.9 506.506 218.11 506.923 217.506C507.341 216.902 507.924 216.532 508.549 216.476C509.919 216.352 511.18 217.447 511.607 219.134L512.641 223.231" stroke="black" stroke-width="2" stroke-linecap="round" stroke-linejoin="round"/>
<rect x="424.318" y="148.259" width="306.682" height="51.7413" fill="#6D1616"/>
<path d="M438.67 166.545L442.889 179.807H443.051L447.278 166.545H451.369L445.352 184H440.597L434.571 166.545H438.67ZM457.161 166.545V184H453.47V166.545H457.161ZM460.197 184V166.545H471.958V169.588H463.887V173.747H471.353V176.79H463.887V180.957H471.992V184H460.197ZM478.821 184L473.827 166.545H477.858L480.747 178.673H480.892L484.08 166.545H487.531L490.71 178.699H490.864L493.753 166.545H497.784L492.79 184H489.193L485.869 172.588H485.733L482.418 184H478.821ZM514.783 171.565C514.714 170.878 514.422 170.344 513.905 169.963C513.388 169.582 512.686 169.392 511.8 169.392C511.197 169.392 510.689 169.477 510.274 169.648C509.859 169.812 509.541 170.043 509.32 170.338C509.104 170.634 508.996 170.969 508.996 171.344C508.984 171.656 509.05 171.929 509.192 172.162C509.339 172.395 509.541 172.597 509.797 172.767C510.053 172.932 510.348 173.077 510.683 173.202C511.018 173.321 511.376 173.423 511.757 173.509L513.325 173.884C514.087 174.054 514.786 174.281 515.422 174.565C516.058 174.849 516.609 175.199 517.075 175.614C517.541 176.028 517.902 176.517 518.158 177.08C518.419 177.642 518.553 178.287 518.558 179.014C518.553 180.082 518.28 181.009 517.74 181.793C517.206 182.571 516.433 183.176 515.422 183.608C514.416 184.034 513.203 184.247 511.783 184.247C510.374 184.247 509.146 184.031 508.101 183.599C507.061 183.168 506.249 182.528 505.663 181.682C505.084 180.83 504.78 179.776 504.751 178.52H508.322C508.362 179.105 508.53 179.594 508.825 179.986C509.126 180.372 509.527 180.665 510.027 180.864C510.533 181.057 511.104 181.153 511.74 181.153C512.365 181.153 512.908 181.062 513.368 180.881C513.834 180.699 514.195 180.446 514.45 180.122C514.706 179.798 514.834 179.426 514.834 179.006C514.834 178.614 514.717 178.284 514.484 178.017C514.257 177.75 513.922 177.523 513.479 177.335C513.041 177.148 512.504 176.977 511.868 176.824L509.967 176.347C508.496 175.989 507.334 175.429 506.482 174.668C505.629 173.906 505.206 172.881 505.212 171.591C505.206 170.534 505.487 169.611 506.055 168.821C506.629 168.031 507.416 167.415 508.416 166.972C509.416 166.528 510.553 166.307 511.825 166.307C513.121 166.307 514.251 166.528 515.217 166.972C516.189 167.415 516.945 168.031 517.484 168.821C518.024 169.611 518.303 170.526 518.32 171.565H514.783ZM521.04 184V166.545H524.731V173.747H532.222V166.545H535.904V184H532.222V176.79H524.731V184H521.04ZM554.987 175.273C554.987 177.176 554.626 178.795 553.904 180.131C553.188 181.466 552.211 182.486 550.972 183.19C549.739 183.889 548.353 184.239 546.813 184.239C545.262 184.239 543.87 183.886 542.637 183.182C541.404 182.477 540.43 181.457 539.714 180.122C538.998 178.787 538.64 177.17 538.64 175.273C538.64 173.369 538.998 171.75 539.714 170.415C540.43 169.08 541.404 168.062 542.637 167.364C543.87 166.659 545.262 166.307 546.813 166.307C548.353 166.307 549.739 166.659 550.972 167.364C552.211 168.062 553.188 169.08 553.904 170.415C554.626 171.75 554.987 173.369 554.987 175.273ZM551.245 175.273C551.245 174.04 551.06 173 550.691 172.153C550.327 171.307 549.813 170.665 549.148 170.227C548.484 169.79 547.705 169.571 546.813 169.571C545.921 169.571 545.143 169.79 544.478 170.227C543.813 170.665 543.296 171.307 542.927 172.153C542.563 173 542.381 174.04 542.381 175.273C542.381 176.506 542.563 177.545 542.927 178.392C543.296 179.239 543.813 179.881 544.478 180.318C545.143 180.756 545.921 180.974 546.813 180.974C547.705 180.974 548.484 180.756 549.148 180.318C549.813 179.881 550.327 179.239 550.691 178.392C551.06 177.545 551.245 176.506 551.245 175.273ZM557.72 184V166.545H564.607C565.93 166.545 567.058 166.798 567.99 167.304C568.922 167.804 569.632 168.5 570.121 169.392C570.615 170.278 570.862 171.301 570.862 172.46C570.862 173.619 570.612 174.642 570.112 175.528C569.612 176.415 568.888 177.105 567.939 177.599C566.996 178.094 565.854 178.341 564.513 178.341H560.124V175.384H563.916C564.626 175.384 565.212 175.261 565.672 175.017C566.138 174.767 566.484 174.423 566.712 173.986C566.945 173.543 567.061 173.034 567.061 172.46C567.061 171.881 566.945 171.375 566.712 170.943C566.484 170.506 566.138 170.168 565.672 169.929C565.206 169.685 564.615 169.562 563.899 169.562H561.411V184H557.72ZM582.728 171.565C582.66 170.878 582.367 170.344 581.85 169.963C581.333 169.582 580.631 169.392 579.745 169.392C579.143 169.392 578.634 169.477 578.219 169.648C577.805 169.812 577.487 170.043 577.265 170.338C577.049 170.634 576.941 170.969 576.941 171.344C576.93 171.656 576.995 171.929 577.137 172.162C577.285 172.395 577.487 172.597 577.742 172.767C577.998 172.932 578.293 173.077 578.629 173.202C578.964 173.321 579.322 173.423 579.702 173.509L581.271 173.884C582.032 174.054 582.731 174.281 583.367 174.565C584.004 174.849 584.555 175.199 585.021 175.614C585.487 176.028 585.847 176.517 586.103 177.08C586.364 177.642 586.498 178.287 586.504 179.014C586.498 180.082 586.225 181.009 585.685 181.793C585.151 182.571 584.379 183.176 583.367 183.608C582.362 184.034 581.148 184.247 579.728 184.247C578.319 184.247 577.092 184.031 576.046 183.599C575.006 183.168 574.194 182.528 573.609 181.682C573.029 180.83 572.725 179.776 572.697 178.52H576.268C576.308 179.105 576.475 179.594 576.771 179.986C577.072 180.372 577.472 180.665 577.972 180.864C578.478 181.057 579.049 181.153 579.685 181.153C580.31 181.153 580.853 181.062 581.313 180.881C581.779 180.699 582.14 180.446 582.396 180.122C582.651 179.798 582.779 179.426 582.779 179.006C582.779 178.614 582.663 178.284 582.43 178.017C582.202 177.75 581.867 177.523 581.424 177.335C580.987 177.148 580.45 176.977 579.813 176.824L577.913 176.347C576.441 175.989 575.279 175.429 574.427 174.668C573.575 173.906 573.151 172.881 573.157 171.591C573.151 170.534 573.433 169.611 574.001 168.821C574.575 168.031 575.362 167.415 576.362 166.972C577.362 166.528 578.498 166.307 579.771 166.307C581.066 166.307 582.197 166.528 583.163 166.972C584.134 167.415 584.89 168.031 585.43 168.821C585.969 169.611 586.248 170.526 586.265 171.565H582.728ZM596.52 165.727L590.895 186.625H587.767L593.392 165.727H596.52ZM601.702 166.545L605.92 179.807H606.082L610.31 166.545H614.401L608.384 184H603.628L597.602 166.545H601.702ZM616.501 184V166.545H628.263V169.588H620.192V173.747H627.658V176.79H620.192V180.957H628.297V184H616.501ZM645.796 166.545V184H642.609L635.015 173.014H634.887V184H631.197V166.545H634.435L641.969 177.523H642.123V166.545H645.796ZM655.033 184H648.845V166.545H655.084C656.839 166.545 658.351 166.895 659.618 167.594C660.885 168.287 661.859 169.284 662.541 170.585C663.229 171.886 663.572 173.443 663.572 175.256C663.572 177.074 663.229 178.636 662.541 179.943C661.859 181.25 660.879 182.253 659.601 182.952C658.328 183.651 656.805 184 655.033 184ZM652.536 180.838H654.879C655.97 180.838 656.888 180.645 657.632 180.259C658.382 179.866 658.945 179.261 659.32 178.443C659.7 177.619 659.891 176.557 659.891 175.256C659.891 173.966 659.7 172.912 659.32 172.094C658.945 171.276 658.385 170.673 657.641 170.287C656.896 169.901 655.979 169.707 654.888 169.707H652.536V180.838ZM682.346 175.273C682.346 177.176 681.985 178.795 681.263 180.131C680.548 181.466 679.57 182.486 678.332 183.19C677.099 183.889 675.712 184.239 674.173 184.239C672.621 184.239 671.229 183.886 669.996 183.182C668.763 182.477 667.789 181.457 667.073 180.122C666.357 178.787 665.999 177.17 665.999 175.273C665.999 173.369 666.357 171.75 667.073 170.415C667.789 169.08 668.763 168.062 669.996 167.364C671.229 166.659 672.621 166.307 674.173 166.307C675.712 166.307 677.099 166.659 678.332 167.364C679.57 168.062 680.548 169.08 681.263 170.415C681.985 171.75 682.346 173.369 682.346 175.273ZM678.604 175.273C678.604 174.04 678.42 173 678.05 172.153C677.687 171.307 677.173 170.665 676.508 170.227C675.843 169.79 675.065 169.571 674.173 169.571C673.281 169.571 672.502 169.79 671.837 170.227C671.173 170.665 670.656 171.307 670.286 172.153C669.923 173 669.741 174.04 669.741 175.273C669.741 176.506 669.923 177.545 670.286 178.392C670.656 179.239 671.173 179.881 671.837 180.318C672.502 180.756 673.281 180.974 674.173 180.974C675.065 180.974 675.843 180.756 676.508 180.318C677.173 179.881 677.687 179.239 678.05 178.392C678.42 177.545 678.604 176.506 678.604 175.273ZM685.08 184V166.545H691.966C693.284 166.545 694.409 166.781 695.341 167.253C696.278 167.719 696.991 168.381 697.48 169.239C697.974 170.091 698.222 171.094 698.222 172.247C698.222 173.406 697.972 174.403 697.472 175.239C696.972 176.068 696.247 176.705 695.298 177.148C694.355 177.591 693.213 177.812 691.872 177.812H687.261V174.847H691.276C691.98 174.847 692.565 174.75 693.031 174.557C693.497 174.364 693.844 174.074 694.071 173.688C694.304 173.301 694.42 172.821 694.42 172.247C694.42 171.668 694.304 171.179 694.071 170.781C693.844 170.384 693.494 170.082 693.023 169.878C692.557 169.668 691.969 169.562 691.259 169.562H688.77V184H685.08ZM694.506 176.057L698.844 184H694.77L690.526 176.057H694.506ZM710.298 171.565C710.23 170.878 709.938 170.344 709.42 169.963C708.903 169.582 708.202 169.392 707.315 169.392C706.713 169.392 706.205 169.477 705.79 169.648C705.375 169.812 705.057 170.043 704.835 170.338C704.619 170.634 704.511 170.969 704.511 171.344C704.5 171.656 704.565 171.929 704.707 172.162C704.855 172.395 705.057 172.597 705.312 172.767C705.568 172.932 705.864 173.077 706.199 173.202C706.534 173.321 706.892 173.423 707.273 173.509L708.841 173.884C709.602 174.054 710.301 174.281 710.938 174.565C711.574 174.849 712.125 175.199 712.591 175.614C713.057 176.028 713.418 176.517 713.673 177.08C713.935 177.642 714.068 178.287 714.074 179.014C714.068 180.082 713.795 181.009 713.256 181.793C712.722 182.571 711.949 183.176 710.938 183.608C709.932 184.034 708.719 184.247 707.298 184.247C705.889 184.247 704.662 184.031 703.616 183.599C702.577 183.168 701.764 182.528 701.179 181.682C700.599 180.83 700.295 179.776 700.267 178.52H703.838C703.878 179.105 704.045 179.594 704.341 179.986C704.642 180.372 705.043 180.665 705.543 180.864C706.048 181.057 706.619 181.153 707.256 181.153C707.881 181.153 708.423 181.062 708.884 180.881C709.349 180.699 709.71 180.446 709.966 180.122C710.222 179.798 710.349 179.426 710.349 179.006C710.349 178.614 710.233 178.284 710 178.017C709.773 177.75 709.438 177.523 708.994 177.335C708.557 177.148 708.02 176.977 707.384 176.824L705.483 176.347C704.011 175.989 702.849 175.429 701.997 174.668C701.145 173.906 700.722 172.881 700.727 171.591C700.722 170.534 701.003 169.611 701.571 168.821C702.145 168.031 702.932 167.415 703.932 166.972C704.932 166.528 706.068 166.307 707.341 166.307C708.636 166.307 709.767 166.528 710.733 166.972C711.705 167.415 712.46 168.031 713 168.821C713.54 169.611 713.818 170.526 713.835 171.565H710.298Z" fill="white"/>
</svg>
